<?xml version="1.0" standalone="no"?>
<!DOCTYPE svg PUBLIC "-//W3C//DTD SVG 20010904//EN"
 "http://www.w3.org/TR/2001/REC-SVG-20010904/DTD/svg10.dtd">
<svg version="1.0" xmlns="http://www.w3.org/2000/svg"
 width="15000.000000pt" height="2500.000000pt" viewBox="0 0 15000.000000 2500.000000"
 preserveAspectRatio="xMidYMid meet">

<g transform="translate(0.000000,2500.000000) scale(0.100000,-0.100000)"
fill="#000000" stroke="none">
<path d="M0 12500 l0 -12500 75000 0 75000 0 0 12500 0 12500 -75000 0 -75000
0 0 -12500z m34275 3332 c33 -12 92 -26 130 -32 39 -7 90 -18 115 -25 25 -7
95 -18 156 -24 61 -6 131 -18 155 -26 24 -7 91 -19 149 -25 58 -5 125 -17 150
-24 25 -8 92 -20 150 -25 58 -6 125 -18 150 -25 25 -8 92 -20 150 -25 58 -6
125 -18 150 -25 25 -8 92 -20 150 -25 58 -6 125 -18 150 -25 25 -8 92 -20 150
-25 58 -6 125 -18 150 -25 25 -8 92 -20 150 -25 58 -6 125 -18 150 -25 25 -8
92 -20 150 -25 58 -6 125 -18 150 -25 25 -8 92 -20 150 -25 58 -6 125 -18 150
-25 25 -8 92 -20 150 -25 58 -6 125 -18 150 -25 25 -8 92 -20 150 -25 58 -6
125 -18 150 -26 25 -7 93 -19 152 -25 59 -6 125 -17 146 -24 20 -8 76 -17 122
-21 47 -3 128 -15 180 -25 52 -10 124 -21 160 -25 36 -3 103 -15 150 -25 47
-10 114 -21 150 -25 36 -3 103 -15 150 -25 47 -10 114 -21 150 -25 36 -3 103
-15 150 -25 47 -10 114 -21 150 -25 36 -3 103 -15 150 -25 47 -10 114 -21 150
-25 36 -3 103 -15 150 -25 47 -10 114 -21 150 -25 36 -3 103 -15 150 -25 47
-10 114 -21 150 -25 36 -3 103 -15 150 -25 47 -10 114 -21 150 -25 36 -3 103
-15 150 -25 47 -10 114 -21 150 -25 36 -3 103 -15 150 -25 47 -10 114 -21 150
-25 36 -3 103 -15 150 -25 47 -10 114 -21 150 -25 36 -3 103 -15 150 -25 47
-10 114 -21 150 -25 36 -3 103 -15 150 -25 47 -10 114 -21 150 -25 36 -3 103
-15 150 -25 47 -10 114 -21 150 -25 36 -3 103 -15 150 -25 47 -10 114 -21 150
-25 36 -3 103 -15 150 -25 47 -10 114 -21 150 -25 36 -3 103 -15 150 -25 47
-10 114 -21 150 -25 36 -3 103 -15 150 -25 47 -10 114 -21 150 -25 36 -3 103
-15 150 -25 47 -10 114 -21 150 -25 36 -3 103 -15 150 -25 47 -10 114 -21 150
-25 36 -3 103 -15 150 -25 47 -10 114 -21 150 -25 36 -3 103 -15 150 -25 47
-10 114 -21 150 -25 36 -3 103 -15 150 -25 47 -10 114 -21 150 -25 36 -3 103
-15 150 -25 47 -10 114 -21 150 -25 36 -3 103 -15 150 -25 47 -10 114 -21 150
-25 36 -3 103 -15 150 -25 47 -10 114 -21 150 -25 36 -3 103 -15 150 -25 47
-10 114 -21 150 -25 36 -3 103 -15 150 -25 47 -10 114 -21 150 -25 36 -3 103
-15 150 -25 47 -10 114 -21 150 -25 36 -3 103 -15 150 -25 47 -10 114 -21 150
-25 36 -3 103 -15 150 -25 47 -10 114 -21 150 -25 36 -3 103 -15 150 -25 47
-10 114 -21 150 -25 36 -3 103 -15 150 -25 47 -10 114 -21 150 -25 36 -3 94
-13 129 -21 36 -8 130 -23 210 -34 164 -22 379 -56 751 -120 170 -29 291 -50
420 -70 137 -22 321 -53 480 -80 263 -45 545 -91 685 -110 81 -12 135 -28 135
-40 0 -12 -61 -27 -145 -35 -38 -3 -95 -13 -125 -20 -30 -8 -107 -21 -170 -29
-63 -9 -130 -20 -147 -25 -18 -5 -77 -15 -130 -21 -54 -7 -123 -18 -153 -25
-30 -8 -95 -19 -145 -25 -99 -11 -285 -59 -285 -72 0 -4 4 -8 9 -8 5 0 70 -11
143 -24 73 -14 156 -27 183 -31 28 -4 95 -15 150 -25 55 -11 123 -22 150 -25
28 -4 95 -15 150 -25 55 -11 123 -22 150 -25 28 -4 95 -15 150 -25 55 -10 132
-24 172 -30 39 -6 79 -17 89 -24 17 -13 16 -14 -3 -24 -12 -7 -62 -18 -113
-26 -50 -9 -128 -22 -173 -30 -105 -20 -238 -41 -407 -66 -74 -12 -151 -25
-170 -30 -19 -5 -73 -14 -120 -20 -47 -6 -140 -22 -206 -35 -67 -14 -125 -25
-130 -25 -4 0 -4 -4 1 -9 15 -14 200 -59 275 -66 36 -4 91 -13 122 -21 32 -8
108 -21 169 -29 61 -8 128 -19 149 -25 21 -6 89 -17 151 -25 63 -8 128 -20
144 -25 17 -5 82 -17 145 -25 105 -14 262 -56 284 -76 16 -14 -22 -21 -724
-139 -69 -12 -177 -30 -240 -40 -155 -25 -288 -47 -385 -65 -44 -8 -530 -89
-1080 -180 -550 -91 -1038 -172 -1085 -180 -102 -18 -293 -49 -450 -75 -129
-20 -250 -41 -420 -70 -155 -26 -340 -57 -480 -80 -190 -30 -309 -50 -420 -70
-58 -10 -125 -21 -150 -25 -25 -3 -94 -15 -155 -25 -60 -11 -720 -121 -1465
-245 -1520 -252 -3602 -598 -4775 -794 -429 -72 -1322 -220 -1985 -330 -663
-110 -1612 -268 -2110 -351 -518 -86 -961 -155 -1035 -161 -147 -11 -239 -5
-340 21 -38 10 -106 21 -150 25 -44 3 -111 15 -150 25 -38 10 -106 21 -150 25
-44 3 -111 15 -150 25 -38 10 -106 21 -150 25 -44 3 -111 15 -150 25 -38 10
-106 21 -150 25 -44 3 -111 15 -150 25 -38 10 -106 21 -150 25 -44 3 -111 15
-150 25 -38 10 -106 21 -150 25 -44 3 -111 15 -150 25 -38 10 -106 21 -150 25
-44 3 -111 15 -150 25 -38 10 -106 21 -150 25 -43 4 -111 15 -150 25 -38 10
-106 21 -150 25 -43 4 -111 15 -150 25 -38 10 -106 21 -150 25 -43 4 -111 15
-150 25 -38 10 -106 21 -150 25 -43 4 -111 15 -150 25 -38 10 -106 21 -150 25
-43 4 -111 15 -150 25 -38 10 -106 21 -150 25 -43 4 -111 15 -150 25 -38 10
-106 21 -150 25 -43 4 -111 15 -150 25 -38 10 -106 21 -150 25 -43 4 -111 15
-150 25 -38 10 -104 21 -145 25 -41 3 -109 15 -150 25 -41 10 -109 21 -150 25
-41 3 -109 15 -150 25 -41 10 -109 21 -150 25 -41 3 -109 15 -150 25 -41 10
-109 21 -150 25 -41 3 -109 15 -150 25 -41 10 -109 21 -150 25 -41 3 -109 15
-150 25 -41 10 -109 21 -150 25 -41 3 -109 15 -150 25 -41 10 -109 21 -150 25
-41 3 -109 15 -150 25 -41 10 -109 21 -150 25 -41 3 -109 15 -150 25 -41 10
-109 21 -150 25 -41 3 -109 15 -150 25 -41 10 -109 21 -150 25 -41 3 -109 15
-150 25 -41 10 -109 21 -150 25 -41 3 -109 15 -150 25 -41 10 -109 21 -150 25
-41 3 -109 15 -150 25 -41 10 -109 21 -150 25 -41 3 -109 15 -150 25 -41 10
-109 21 -150 25 -41 3 -109 15 -150 25 -41 10 -109 21 -150 25 -41 3 -109 15
-150 25 -41 10 -109 21 -150 25 -41 3 -109 15 -150 25 -41 10 -109 21 -150 25
-41 3 -109 15 -150 25 -41 10 -109 21 -150 25 -41 3 -109 15 -150 25 -41 10
-109 21 -150 25 -41 3 -109 15 -150 25 -41 10 -109 21 -150 25 -41 3 -109 15
-150 25 -41 10 -109 21 -150 25 -41 3 -109 15 -150 25 -41 10 -109 21 -150 25
-41 3 -109 15 -150 25 -41 10 -109 21 -150 25 -41 3 -109 15 -150 25 -41 10
-109 21 -150 25 -41 3 -109 15 -150 25 -41 10 -109 21 -150 25 -41 3 -109 15
-150 25 -41 10 -109 21 -150 25 -41 3 -109 15 -150 25 -41 10 -109 21 -150 25
-41 3 -109 15 -150 25 -41 10 -109 21 -150 25 -41 3 -109 15 -150 25 -41 10
-109 21 -150 25 -41 3 -109 15 -150 25 -41 10 -109 21 -150 25 -41 3 -109 15
-150 25 -41 10 -109 21 -150 25 -41 3 -109 15 -150 25 -41 10 -109 21 -150 25
-41 3 -109 15 -150 25 -41 10 -109 21 -150 25 -41 3 -109 15 -150 25 -41 10
-109 21 -150 25 -41 3 -109 15 -150 25 -41 10 -109 21 -150 25 -41 3 -109 15
-150 25 -41 10 -109 21 -150 25 -41 3 -109 15 -150 25 -41 10 -109 21 -150 25
-41 3 -109 15 -150 25 -41 10 -109 21 -150 25 -41 3 -109 15 -150 25 -41 10
-109 21 -150 25 -41 3 -109 15 -150 25 -41 10 -109 21 -150 25 -41 4 -109 15
-150 25 -41 10 -113 24 -159 29 -135 17 -129 41 14 56 39 4 106 15 150 25 44
10 112 22 150 25 39 4 106 15 150 25 44 10 112 22 150 25 39 4 106 15 150 25
44 10 112 22 150 25 39 4 104 15 145 25 41 10 98 22 125 26 100 13 92 24 -30
39 -27 4 -75 13 -106 21 -30 7 -106 20 -167 28 -61 8 -128 19 -149 25 -21 6
-91 17 -155 26 -65 8 -129 20 -143 25 -14 5 -67 15 -118 21 -50 6 -121 17
-157 25 -36 8 -115 22 -177 30 -95 12 -141 25 -263 70 -30 11 35 25 429 90
960 158 957 157 946 174 -10 16 -108 41 -238 60 -155 24 -283 45 -422 70 -60
11 -153 27 -205 35 -52 8 -135 21 -185 29 -49 9 -117 20 -149 26 -66 11 -90
25 -66 40 27 18 109 39 193 50 45 6 127 19 182 30 113 22 314 55 455 76 52 8
131 21 175 29 102 20 302 53 425 71 52 8 131 21 175 29 102 20 302 53 425 71
52 8 131 21 175 29 87 17 263 46 445 75 138 21 266 43 415 70 114 21 278 48
475 80 129 20 250 41 420 70 159 27 343 58 480 80 129 20 250 41 420 70 159
27 343 58 480 80 129 20 250 41 420 70 249 42 369 62 465 76 55 8 136 21 180
29 65 12 570 96 1560 260 50 8 142 24 205 35 159 27 343 58 480 80 129 20 250
41 420 70 159 27 343 58 480 80 129 20 250 41 420 70 159 27 343 58 480 80
129 20 250 41 420 70 159 27 343 58 480 80 129 20 250 41 420 70 159 27 343
58 480 80 131 21 254 41 420 70 481 82 4049 673 4109 680 42 5 148 7 236 6
132 -3 171 -7 220 -24z m55210 -1242 c283 -15 613 -30 895 -40 151 -5 352 -16
445 -24 94 -8 267 -20 385 -26 118 -6 235 -15 260 -20 25 -5 119 -14 210 -20
251 -18 398 -49 388 -82 -3 -7 -43 -21 -90 -30 -48 -9 -113 -30 -146 -47 -33
-17 -101 -39 -150 -50 -50 -11 -117 -33 -149 -50 -33 -16 -98 -37 -144 -46
-48 -10 -113 -32 -151 -51 -41 -21 -93 -38 -135 -44 -104 -15 -404 -12 -513 5
-52 8 -219 22 -370 30 -151 8 -309 19 -350 25 -158 20 -671 34 -1330 34 -716
0 -854 -6 -1082 -44 -145 -25 -273 -74 -273 -105 0 -32 154 -83 305 -101 69
-8 147 -19 173 -24 27 -6 142 -17 258 -25 115 -9 232 -20 261 -25 29 -6 159
-17 288 -25 129 -8 294 -21 365 -29 72 -8 207 -17 300 -21 94 -4 224 -13 290
-21 66 -7 206 -18 310 -24 105 -6 269 -19 365 -30 96 -10 222 -22 280 -25 58
-4 166 -15 240 -25 74 -10 173 -22 220 -25 47 -4 106 -11 132 -16 26 -4 121
-18 210 -29 211 -26 560 -84 668 -110 47 -12 119 -28 160 -36 41 -7 102 -25
135 -39 33 -13 97 -34 143 -46 95 -25 127 -46 153 -103 24 -53 24 -103 -2
-170 -26 -70 -62 -100 -152 -127 -40 -12 -101 -37 -136 -56 -41 -22 -104 -43
-175 -59 -61 -13 -128 -31 -149 -39 -21 -8 -82 -22 -136 -30 -54 -8 -127 -21
-162 -29 -35 -8 -109 -20 -164 -26 -55 -6 -116 -15 -136 -20 -20 -6 -117 -17
-214 -25 -98 -8 -230 -22 -294 -30 -64 -8 -204 -19 -311 -25 -107 -6 -226 -15
-265 -20 -38 -5 -194 -14 -345 -20 -151 -6 -378 -15 -505 -20 -612 -27 -893
-32 -1630 -27 -491 3 -906 10 -1120 20 -187 9 -491 21 -675 27 -184 6 -364 15
-400 20 -36 5 -166 14 -290 20 -124 6 -308 19 -410 30 -102 10 -234 22 -295
25 -60 4 -182 15 -270 25 -88 10 -205 21 -260 25 -55 3 -161 14 -235 25 -74
11 -175 24 -223 29 -96 11 -107 15 -107 37 0 20 54 41 153 60 45 9 106 26 137
39 30 12 93 31 140 40 47 10 119 30 160 45 41 15 109 33 150 40 41 7 108 26
148 42 40 16 108 35 150 43 42 8 106 24 142 36 90 30 304 30 520 1 85 -12 207
-26 271 -32 64 -5 140 -14 168 -20 29 -5 152 -16 274 -25 122 -8 249 -20 282
-25 33 -6 182 -17 330 -25 149 -8 306 -20 350 -25 204 -27 1143 -38 1670 -20
143 5 341 18 440 29 191 23 413 65 457 87 48 25 49 81 1 103 -67 31 -463 94
-726 117 -93 7 -197 18 -231 24 -35 5 -166 16 -292 25 -126 8 -287 21 -359 29
-71 8 -193 17 -270 21 -77 4 -219 15 -315 25 -96 10 -233 21 -305 25 -71 3
-204 14 -295 25 -91 10 -210 21 -265 25 -55 3 -140 13 -190 20 -49 8 -139 19
-200 25 -301 29 -909 135 -1035 180 -30 11 -90 27 -132 34 -79 15 -122 33
-173 72 -17 13 -57 33 -88 45 -108 41 -141 97 -98 163 22 32 53 55 132 96 30
15 74 44 96 63 34 28 58 37 135 52 51 10 119 29 151 42 96 39 710 152 912 168
44 4 141 15 215 26 74 10 203 23 285 29 83 6 177 15 210 20 33 6 146 14 250
20 183 10 450 25 680 40 163 10 1885 11 2070 0z m-26852 -40 c41 -6 88 -22
120 -40 29 -16 88 -39 132 -51 90 -24 108 -32 149 -66 36 -30 73 -45 163 -67
47 -12 94 -33 139 -62 37 -24 85 -49 108 -55 112 -28 147 -41 173 -63 37 -31
99 -62 143 -71 70 -15 126 -38 180 -76 33 -23 81 -44 120 -54 86 -21 119 -34
155 -60 49 -36 91 -54 181 -81 54 -15 106 -39 142 -64 36 -24 82 -45 122 -55
90 -22 117 -33 182 -77 34 -22 88 -46 135 -59 43 -12 104 -37 136 -57 54 -33
64 -36 137 -36 71 0 86 4 147 36 37 19 93 41 123 48 64 15 86 25 157 73 32 22
85 43 139 58 58 15 108 36 150 65 36 23 86 47 112 54 102 26 139 41 194 79 39
26 87 47 144 62 59 15 108 37 151 65 44 29 93 50 151 65 52 14 106 36 137 57
71 48 91 57 173 77 44 10 92 31 120 50 69 47 99 60 180 80 48 11 94 32 138 60
43 28 94 51 147 65 45 12 107 37 137 56 39 24 75 36 125 43 106 15 2863 16
2940 1 80 -16 92 -23 168 -110 78 -88 119 -166 148 -281 30 -121 61 -178 144
-269 85 -93 124 -166 158 -295 33 -122 62 -176 146 -268 84 -92 120 -158 155
-289 33 -128 53 -164 136 -254 79 -84 147 -191 131 -207 -27 -27 -138 -30
-1316 -34 -1194 -4 -1462 0 -1558 27 -62 18 -121 130 -158 303 -26 119 -71
214 -148 307 -34 41 -75 102 -91 135 -30 61 -70 199 -70 241 0 13 -7 41 -16
63 -29 73 -96 79 -224 18 -41 -19 -102 -43 -135 -52 -73 -21 -107 -38 -164
-82 -28 -21 -80 -44 -142 -63 -72 -23 -109 -40 -146 -70 -36 -30 -73 -48 -145
-71 -62 -19 -114 -42 -142 -64 -59 -44 -86 -58 -176 -85 -49 -14 -96 -37 -135
-66 -39 -29 -85 -52 -130 -65 -106 -31 -123 -39 -173 -80 -45 -37 -73 -50
-192 -83 -33 -9 -74 -31 -103 -55 -48 -40 -87 -58 -189 -86 -35 -10 -78 -32
-108 -56 -60 -48 -78 -55 -200 -82 -90 -19 -130 -21 -830 -24 -628 -3 -751 -2
-840 11 -167 26 -250 52 -304 97 -35 28 -73 47 -145 69 -73 22 -112 41 -154
74 -36 28 -80 51 -115 61 -102 28 -141 46 -189 86 -29 24 -70 46 -103 55 -119
33 -147 46 -192 83 -51 42 -69 50 -174 81 -50 14 -90 34 -130 65 -36 28 -80
52 -114 61 -96 26 -141 46 -174 74 -42 37 -98 63 -179 85 -45 12 -84 30 -115
55 -64 50 -74 55 -178 84 -50 14 -115 37 -145 51 -67 31 -140 34 -167 7 -18
-18 -29 -51 -71 -230 -26 -106 -68 -193 -127 -262 -103 -120 -128 -172 -172
-360 -11 -47 -33 -115 -50 -152 -27 -61 -34 -68 -70 -77 -90 -25 -376 -31
-1437 -31 -1278 1 -1455 7 -1455 50 0 17 61 100 125 170 78 84 98 122 131 248
36 135 73 206 160 301 88 97 115 147 143 264 29 123 60 182 146 278 90 101
126 166 154 279 30 119 70 199 138 272 32 35 69 78 81 95 29 41 74 54 217 62
184 10 2753 2 2828 -9z m12916 5 c35 -3 77 -13 92 -21 l29 -15 0 -578 c0 -406
3 -588 11 -612 17 -49 43 -74 128 -120 42 -22 85 -49 96 -59 11 -10 35 -25 54
-35 54 -27 439 -93 612 -104 587 -39 1146 -44 1714 -17 379 18 460 23 524 37
25 6 102 19 173 29 100 15 142 27 195 53 38 19 98 44 135 56 77 25 111 49 136
94 15 29 17 86 20 642 2 387 7 613 13 621 25 30 145 33 1404 35 1248 1 1353
-2 1430 -31 l25 -10 0 -616 0 -617 -52 -114 c-31 -68 -66 -127 -87 -148 -30
-30 -121 -75 -153 -75 -6 0 -44 -18 -84 -40 -44 -24 -108 -48 -161 -61 -49
-11 -122 -31 -163 -44 -41 -14 -115 -32 -165 -40 -49 -9 -124 -25 -165 -35
-41 -11 -131 -26 -200 -34 -69 -9 -149 -20 -179 -26 -29 -5 -124 -17 -210 -25
-86 -9 -203 -22 -261 -30 -58 -8 -195 -19 -305 -25 -110 -6 -227 -15 -260 -20
-33 -5 -190 -14 -350 -20 -159 -6 -387 -15 -505 -20 -731 -35 -2226 -38 -2785
-6 -143 8 -384 17 -535 21 -151 4 -331 13 -400 21 -69 8 -208 19 -310 24 -206
11 -286 18 -345 30 -22 5 -96 14 -165 20 -178 16 -587 77 -706 105 -55 13
-143 31 -194 40 -51 9 -119 27 -149 40 -31 13 -98 33 -149 45 -66 16 -107 32
-144 58 -29 19 -93 53 -141 73 -49 21 -96 44 -104 50 -26 22 -41 64 -57 159
-14 81 -16 183 -14 705 l3 610 30 14 c16 8 76 17 135 20 138 8 2456 5 2539 -4z
m25761 2 c52 -3 111 -11 129 -19 l35 -14 -2 -164 c-1 -97 -6 -168 -13 -176
-28 -33 -102 -35 -1324 -35 -1083 1 -1407 -4 -1455 -23 -13 -6 -15 -99 -12
-776 l2 -770 -27 -11 c-59 -22 -378 -28 -1438 -28 -1075 0 -1376 6 -1443 30
-31 10 -33 15 -28 41 3 16 6 361 6 766 0 657 -1 737 -15 745 -39 22 -332 27
-1460 26 -1264 0 -1303 1 -1325 42 -6 11 -9 83 -8 176 l3 158 29 13 c15 8 78
17 140 21 125 7 8058 5 8206 -2z m3818 -6 c57 -6 112 -15 122 -21 20 -11 20
-28 20 -981 l0 -969 -27 -11 c-59 -22 -380 -28 -1443 -28 -1063 0 -1384 6
-1443 28 l-27 11 0 969 c0 914 1 971 18 979 32 17 105 25 297 31 314 10 2369
3 2483 -8z m4500 0 c57 -6 112 -16 123 -21 19 -11 20 -21 19 -352 -1 -229 2
-344 9 -351 22 -22 185 -21 284 2 51 12 128 28 172 35 44 8 125 23 180 35 55
11 125 25 155 31 30 6 141 29 245 51 105 22 249 51 320 64 72 13 145 28 164
34 19 6 70 15 115 21 45 6 115 20 156 30 41 10 98 21 125 25 28 3 100 17 160
30 61 13 146 31 190 39 156 30 291 57 400 81 61 14 160 34 220 45 61 11 142
26 180 34 126 26 228 46 320 62 50 9 140 26 200 39 61 13 164 34 230 47 l120
23 1600 3 c1604 2 1713 0 1702 -31 -4 -13 -92 -35 -148 -36 -19 -1 -69 -10
-110 -20 -41 -11 -110 -25 -154 -31 -44 -6 -116 -20 -160 -30 -97 -23 -313
-66 -695 -139 -63 -13 -164 -33 -225 -46 -60 -14 -135 -27 -165 -30 -30 -4
-89 -15 -130 -25 -41 -11 -115 -26 -165 -34 -109 -18 -269 -49 -390 -76 -49
-11 -137 -29 -195 -39 -58 -11 -161 -31 -230 -45 -308 -63 -496 -99 -625 -121
-49 -9 -128 -24 -175 -35 -47 -11 -116 -24 -155 -30 -38 -6 -108 -19 -155 -30
-101 -23 -293 -61 -479 -96 -134 -25 -171 -37 -171 -54 0 -20 67 -42 183 -60
67 -11 137 -24 155 -29 18 -5 67 -15 110 -21 42 -6 118 -20 167 -30 50 -11
200 -40 335 -65 135 -26 288 -55 340 -66 206 -41 310 -61 426 -79 66 -10 132
-24 147 -29 14 -6 66 -15 114 -21 48 -7 122 -20 163 -30 41 -10 100 -21 130
-25 30 -3 109 -17 175 -30 119 -24 169 -34 420 -80 72 -13 213 -40 315 -60
102 -20 241 -47 310 -59 184 -35 333 -64 440 -86 52 -11 131 -24 175 -30 44
-6 103 -17 131 -25 28 -8 97 -21 155 -30 57 -8 129 -22 159 -30 74 -21 297
-30 384 -17 50 8 87 22 138 53 43 26 104 52 155 65 49 14 114 40 152 63 41 25
98 48 151 61 56 14 103 33 138 57 34 23 91 47 161 68 66 19 125 43 152 63 28
20 78 40 138 56 62 17 114 38 155 65 40 26 90 47 145 61 81 20 116 36 190 82
18 12 73 32 122 44 56 15 108 36 142 59 34 23 93 48 156 66 61 17 122 43 154
64 33 22 85 43 144 58 62 16 110 36 145 60 34 23 90 47 156 66 66 19 122 42
155 65 34 23 81 42 137 56 54 13 110 36 154 63 40 24 104 50 153 63 49 14 114
40 152 63 41 25 98 48 151 61 56 14 103 33 138 57 34 23 91 47 160 67 64 19
126 45 154 64 28 19 82 42 138 56 50 14 106 34 123 45 71 46 117 61 213 71 62
7 553 11 1309 11 1168 0 1214 -1 1326 -20 122 -21 212 -50 251 -80 40 -31 83
-50 156 -66 42 -10 97 -32 137 -57 41 -24 103 -50 159 -64 60 -17 112 -39 152
-65 42 -27 88 -46 148 -61 61 -14 106 -33 146 -59 38 -26 88 -47 150 -63 58
-16 118 -41 161 -66 40 -25 99 -49 143 -60 72 -18 112 -36 183 -81 17 -11 70
-30 116 -43 50 -13 113 -39 153 -63 43 -26 101 -50 154 -63 57 -14 104 -34
142 -59 39 -26 85 -45 145 -60 56 -14 112 -37 155 -62 38 -23 109 -53 163 -68
56 -17 114 -41 139 -59 25 -19 80 -41 137 -57 54 -15 122 -43 160 -66 40 -24
103 -50 158 -64 58 -16 110 -38 146 -61 36 -24 86 -45 147 -61 59 -15 112 -36
144 -57 53 -35 102 -55 192 -76 29 -7 79 -30 111 -51 39 -26 89 -47 150 -63
51 -14 107 -34 124 -45 68 -43 105 -59 180 -80 43 -12 101 -33 129 -47 44 -22
49 -28 36 -40 -8 -9 -52 -19 -107 -25 -134 -15 -2818 -6 -2886 10 -27 6 -72
27 -100 45 -30 21 -86 45 -138 59 -62 18 -109 39 -155 70 -43 29 -91 52 -132
62 -87 23 -123 38 -169 75 -87 70 110 65 -2376 68 -1232 2 -2258 0 -2281 -3
-22 -3 -64 -21 -92 -39 -29 -18 -89 -43 -137 -56 -60 -15 -101 -33 -132 -57
-54 -42 -85 -55 -173 -78 -42 -10 -91 -34 -137 -65 -88 -59 -157 -77 -352 -91
-87 -6 -1178 -9 -3041 -7 -2719 3 -2909 5 -2975 21 -38 10 -104 22 -145 28
-41 6 -102 17 -135 26 -33 8 -112 23 -175 34 -63 10 -146 25 -185 33 -91 19
-209 41 -365 70 -178 34 -380 74 -485 97 -49 10 -133 26 -185 35 -52 8 -120
21 -150 29 -30 8 -100 21 -155 29 -55 8 -113 19 -127 25 -15 6 -67 15 -115 21
-48 7 -122 20 -163 30 -41 10 -111 24 -154 29 -43 6 -104 18 -135 26 -31 8
-90 19 -131 25 -41 6 -113 20 -160 30 -47 10 -182 37 -300 60 -118 23 -267 52
-330 65 -63 13 -146 29 -185 35 -38 6 -97 18 -130 27 -70 19 -231 21 -263 4
l-22 -12 0 -365 0 -364 -27 -11 c-59 -22 -380 -28 -1443 -28 -1063 0 -1384 6
-1443 28 l-27 11 0 969 c0 914 1 971 18 979 32 17 105 25 297 31 314 10 2369
3 2483 -8z m-43498 -2624 c140 -9 386 -21 545 -27 160 -6 319 -15 355 -20 36
-5 155 -14 265 -20 110 -6 272 -20 360 -30 88 -10 201 -22 250 -25 50 -3 151
-15 225 -25 74 -10 189 -26 255 -35 365 -49 648 -93 695 -109 19 -6 36 -19 38
-28 6 -29 -40 -47 -169 -67 -68 -11 -169 -29 -224 -40 -96 -19 -219 -42 -590
-111 -93 -17 -240 -45 -325 -61 -127 -25 -190 -32 -350 -36 -186 -5 -200 -5
-295 20 -55 14 -125 28 -155 32 -30 4 -93 15 -140 25 -47 10 -131 24 -187 30
-56 6 -116 15 -135 21 -18 5 -121 16 -228 24 -107 9 -222 20 -255 25 -75 13
-372 26 -900 40 -502 14 -1354 -7 -1635 -40 -91 -11 -222 -24 -291 -29 -69 -6
-157 -17 -195 -25 -38 -8 -98 -18 -134 -21 -36 -4 -101 -15 -145 -25 -44 -10
-118 -24 -164 -30 -47 -6 -119 -23 -160 -36 -42 -14 -118 -34 -169 -44 -57
-12 -114 -31 -147 -49 -30 -17 -84 -38 -122 -47 -37 -9 -84 -25 -104 -35 -43
-21 -97 -92 -129 -167 -28 -65 -21 -100 43 -194 47 -71 89 -99 175 -117 31 -7
93 -30 137 -51 50 -24 107 -43 150 -50 39 -6 105 -22 148 -36 169 -52 767
-144 1077 -164 91 -6 197 -16 235 -21 256 -37 1790 -37 2068 0 43 6 151 15
240 21 250 17 712 83 838 120 37 11 101 26 142 34 90 18 125 34 161 77 62 74
90 72 -1334 78 l-1265 6 -50 25 -50 25 -3 133 -3 133 46 20 c27 12 87 25 143
30 60 6 1105 8 2742 7 2383 -3 2651 -5 2703 -20 100 -27 99 -23 95 -236 l-3
-184 -28 -24 c-15 -13 -53 -31 -85 -40 -72 -21 -121 -46 -147 -74 -30 -33 -69
-50 -171 -75 -50 -13 -113 -35 -141 -49 -28 -14 -92 -34 -142 -45 -49 -11
-120 -29 -156 -40 -36 -11 -107 -28 -158 -36 -50 -9 -121 -25 -157 -35 -36
-10 -105 -24 -155 -30 -49 -7 -117 -18 -150 -25 -33 -7 -105 -18 -160 -25 -55
-6 -136 -17 -180 -25 -44 -8 -170 -24 -279 -35 -110 -11 -202 -23 -206 -25 -3
-2 -96 -11 -206 -20 -109 -8 -224 -19 -254 -25 -30 -5 -149 -14 -265 -20 -115
-6 -277 -18 -360 -26 -82 -8 -271 -19 -420 -24 -148 -6 -373 -15 -500 -21
-453 -21 -779 -28 -1360 -28 -566 0 -776 5 -1280 28 -126 6 -347 16 -490 22
-143 5 -287 14 -320 19 -33 5 -154 14 -270 20 -115 6 -257 17 -315 25 -58 8
-166 20 -240 25 -74 6 -200 19 -280 30 -80 11 -194 24 -254 30 -61 6 -139 17
-175 25 -36 7 -97 16 -136 20 -38 4 -113 15 -165 26 -52 10 -132 23 -177 28
-46 6 -109 17 -142 26 -32 8 -94 20 -137 26 -43 5 -119 21 -169 34 -49 13
-130 31 -178 40 -49 9 -110 25 -137 35 -27 10 -88 26 -137 35 -48 10 -119 30
-158 47 -38 16 -111 40 -162 53 -66 16 -106 33 -140 58 -27 19 -80 45 -118 57
-116 38 -141 54 -190 128 -25 37 -61 88 -81 115 -63 83 -55 144 31 247 20 24
45 60 55 81 28 55 70 84 161 114 45 14 107 44 138 65 41 30 82 46 156 65 55
14 124 37 153 50 29 14 88 32 130 40 42 9 118 29 167 44 50 16 123 34 163 40
40 6 105 20 145 31 40 10 110 24 155 30 46 6 95 15 108 20 13 5 74 16 136 25
62 9 140 23 173 30 33 7 105 18 160 25 55 6 116 15 136 21 19 5 98 16 175 24
76 8 161 20 188 25 26 6 125 17 220 25 94 8 223 22 286 30 63 7 169 17 235 20
66 4 210 15 320 25 110 11 290 22 400 25 110 3 317 12 460 20 143 9 289 17
325 19 36 1 596 2 1245 1 965 -1 1226 -4 1435 -18z m22585 5 c55 -6 244 -16
420 -22 176 -6 367 -15 425 -21 225 -21 321 -29 495 -39 99 -6 202 -15 228
-20 27 -5 110 -14 185 -20 76 -6 184 -17 242 -25 58 -8 170 -22 250 -30 80 -8
181 -21 225 -29 44 -8 107 -18 140 -21 33 -3 107 -15 165 -25 58 -10 143 -24
190 -30 47 -6 110 -18 141 -26 31 -7 92 -19 135 -25 43 -5 120 -21 169 -34 50
-13 130 -31 179 -40 49 -9 112 -25 140 -36 28 -10 89 -26 136 -35 47 -9 121
-31 165 -49 44 -18 107 -38 140 -45 78 -16 116 -32 163 -70 21 -17 72 -41 116
-54 100 -31 139 -59 177 -126 17 -30 46 -80 65 -110 31 -48 35 -61 31 -103 -3
-31 -15 -65 -37 -100 -19 -28 -45 -74 -59 -101 -34 -64 -70 -90 -175 -126 -48
-16 -104 -43 -126 -60 -42 -34 -92 -54 -160 -65 -25 -4 -79 -22 -121 -41 -42
-19 -121 -43 -176 -54 -56 -11 -116 -27 -135 -34 -19 -8 -80 -24 -136 -35 -56
-11 -139 -30 -184 -42 -46 -11 -130 -29 -188 -39 -58 -10 -143 -25 -190 -34
-154 -28 -273 -47 -420 -66 -80 -11 -167 -24 -195 -30 -27 -5 -117 -17 -200
-25 -82 -8 -195 -22 -250 -29 -55 -8 -143 -17 -195 -21 -52 -3 -169 -15 -260
-25 -91 -11 -257 -24 -370 -30 -113 -6 -234 -15 -270 -20 -36 -5 -193 -13
-350 -19 -157 -6 -440 -19 -630 -29 -497 -25 -2068 -25 -2580 0 -195 10 -481
23 -635 28 -154 6 -311 15 -350 20 -38 5 -167 14 -285 20 -118 6 -287 20 -375
30 -88 10 -203 22 -255 25 -52 4 -140 13 -195 21 -55 7 -165 21 -245 29 -139
14 -324 40 -515 71 -49 8 -147 23 -216 34 -70 10 -153 25 -185 34 -33 8 -103
21 -156 30 -53 9 -125 25 -160 35 -35 11 -103 27 -153 36 -49 10 -112 25 -140
36 -27 10 -95 28 -149 40 -56 11 -129 36 -165 54 -36 18 -93 39 -126 45 -81
16 -119 33 -167 75 -23 19 -78 49 -126 67 -48 18 -98 45 -117 62 -34 33 -70
124 -81 209 -11 77 36 227 84 270 11 10 60 34 108 53 49 19 105 47 124 63 51
41 91 59 167 76 37 9 102 31 144 50 41 20 111 42 155 50 43 9 111 26 149 39
39 13 104 29 145 35 41 6 95 18 120 26 151 49 1004 191 1353 225 60 6 132 15
160 21 29 5 131 16 227 25 96 8 202 19 235 24 33 6 166 17 295 25 129 8 269
19 310 25 41 5 190 14 330 20 229 9 765 35 895 44 125 8 2389 -3 2480 -12z
m-11935 -32 c195 -5 434 -16 530 -24 96 -8 267 -20 380 -26 113 -6 226 -15
251 -20 25 -5 127 -16 227 -25 100 -8 187 -18 194 -20 7 -3 78 -14 158 -25
298 -41 632 -108 717 -144 32 -13 93 -33 136 -45 124 -34 136 -43 251 -194 55
-73 51 -87 -59 -211 -70 -79 -84 -88 -192 -115 -45 -11 -105 -32 -134 -46 -28
-15 -95 -35 -149 -45 -54 -11 -131 -28 -171 -39 -41 -11 -101 -23 -134 -26
-33 -4 -98 -15 -145 -25 -47 -10 -133 -23 -191 -29 -58 -7 -121 -16 -140 -21
-19 -6 -117 -17 -219 -25 -102 -9 -212 -20 -245 -25 -33 -5 -132 -14 -220 -20
-194 -12 -255 -19 -255 -30 0 -14 121 -49 226 -65 56 -8 114 -19 129 -25 15
-6 73 -17 129 -26 55 -8 126 -21 157 -29 32 -8 106 -24 165 -35 60 -10 197
-38 304 -60 107 -23 231 -48 275 -56 44 -9 127 -26 185 -39 58 -13 130 -26
160 -30 30 -4 87 -15 125 -25 39 -10 105 -24 148 -29 44 -6 113 -20 155 -30
43 -10 100 -22 127 -26 28 -3 109 -19 180 -35 168 -38 314 -67 445 -91 58 -11
141 -28 185 -38 44 -11 105 -23 135 -26 30 -4 87 -15 125 -25 39 -10 106 -24
150 -30 44 -6 98 -15 120 -21 22 -6 85 -19 140 -28 55 -9 99 -20 98 -26 -1 -5
-21 -14 -45 -20 -26 -6 -691 -9 -1743 -10 l-1700 0 -85 21 c-47 12 -110 25
-140 29 -30 4 -95 17 -145 30 -49 13 -112 26 -140 30 -27 3 -91 17 -141 30
-50 13 -140 33 -202 45 -61 11 -129 27 -150 34 -22 8 -75 19 -118 26 -44 6
-110 20 -149 30 -38 11 -104 24 -145 30 -41 6 -106 20 -145 30 -38 11 -108 27
-155 35 -47 9 -125 27 -175 40 -49 13 -123 28 -164 34 -40 7 -105 20 -145 31
-39 10 -118 28 -176 39 -214 42 -290 59 -670 146 -58 14 -157 34 -220 46 -63
11 -140 26 -171 32 -37 7 -72 7 -100 1 l-44 -9 -2 -349 c-1 -274 -5 -351 -15
-357 -34 -21 -208 -24 -1398 -24 -1186 0 -1364 3 -1398 24 -10 6 -12 207 -12
977 0 533 0 972 0 976 0 15 81 32 175 37 170 10 4889 2 5265 -9z m20369 5 c35
-3 77 -13 92 -21 l29 -15 0 -578 c0 -406 3 -588 11 -612 17 -49 43 -74 128
-120 42 -22 85 -49 96 -59 11 -10 35 -25 54 -35 54 -27 439 -93 612 -104 587
-39 1146 -44 1714 -17 379 18 460 23 524 37 25 6 102 19 173 29 100 15 142 27
195 53 38 19 98 44 135 56 77 25 111 49 136 94 15 29 17 86 20 642 2 387 7
613 13 621 25 30 145 33 1404 35 1248 1 1353 -2 1430 -31 l25 -10 0 -616 0
-617 -52 -114 c-31 -68 -66 -127 -87 -148 -30 -30 -121 -75 -153 -75 -6 0 -44
-18 -84 -40 -44 -24 -108 -48 -161 -61 -49 -11 -122 -31 -163 -44 -41 -14
-115 -32 -165 -40 -49 -9 -124 -25 -165 -35 -41 -11 -131 -26 -200 -34 -69 -9
-149 -20 -179 -26 -29 -5 -124 -17 -210 -25 -86 -9 -203 -22 -261 -30 -58 -8
-195 -19 -305 -25 -110 -6 -227 -15 -260 -20 -33 -5 -190 -14 -350 -20 -159
-6 -387 -15 -505 -20 -731 -35 -2226 -38 -2785 -6 -143 8 -384 17 -535 21
-151 4 -331 13 -400 21 -69 8 -208 19 -310 24 -206 11 -286 18 -345 30 -22 5
-96 14 -165 20 -178 16 -587 77 -706 105 -55 13 -143 31 -194 40 -51 9 -119
27 -149 40 -31 13 -98 33 -149 45 -66 16 -107 32 -144 58 -29 19 -93 53 -141
73 -49 21 -96 44 -104 50 -26 22 -41 64 -57 159 -14 81 -16 183 -14 705 l3
610 30 14 c16 8 76 17 135 20 138 8 2456 5 2539 -4z m13901 -5 c217 -6 431
-15 475 -20 44 -5 184 -14 310 -20 127 -6 286 -17 355 -25 69 -8 205 -22 302
-30 98 -9 199 -19 225 -24 27 -5 113 -17 193 -26 80 -9 170 -22 200 -30 30 -8
96 -19 145 -26 50 -6 125 -22 168 -36 42 -13 118 -33 168 -44 51 -11 124 -36
167 -58 42 -21 107 -48 143 -60 94 -31 124 -64 139 -151 13 -75 4 -144 -25
-199 -14 -29 -102 -81 -134 -81 -9 0 -61 -22 -116 -50 -73 -36 -126 -55 -196
-69 -54 -11 -107 -24 -119 -31 -34 -18 -554 -114 -681 -125 -41 -4 -128 -15
-194 -25 -66 -10 -185 -24 -263 -30 -79 -6 -169 -16 -200 -21 -32 -5 -181 -16
-332 -24 -151 -8 -329 -20 -395 -25 -237 -21 -787 -29 -1851 -30 -1049 0
-1171 -3 -1199 -31 -6 -6 -11 -130 -12 -346 -1 -184 -4 -338 -7 -340 -23 -24
-153 -27 -1316 -30 -1211 -4 -1449 0 -1528 28 l-32 11 2 971 3 972 50 13 c28
7 111 16 185 20 214 11 4925 4 5370 -8z m-83333 -3950 c94 -5 207 -13 250 -19
43 -6 152 -18 243 -26 224 -22 443 -66 423 -85 -20 -20 -224 -61 -398 -80
-284 -30 -472 -25 -735 21 -168 29 -525 42 -925 34 -187 -3 -367 -10 -400 -15
-33 -5 -116 -16 -185 -26 -81 -11 -150 -26 -198 -45 -40 -16 -77 -29 -82 -29
-5 0 -35 -9 -65 -21 -69 -26 -95 -62 -95 -132 0 -86 39 -127 150 -157 25 -7
70 -23 101 -35 30 -13 107 -31 170 -40 63 -9 139 -21 169 -26 30 -5 240 -11
465 -15 457 -7 774 5 955 35 63 10 198 27 299 37 175 17 190 17 305 1 67 -10
168 -22 225 -28 57 -5 141 -19 185 -29 45 -11 89 -20 98 -20 9 0 29 -5 45 -11
39 -14 19 -24 -82 -39 -44 -6 -105 -18 -135 -25 -30 -8 -147 -24 -260 -35
-113 -12 -241 -26 -285 -31 -130 -14 -791 -31 -1190 -31 -469 0 -1066 18
-1215 37 -63 8 -167 19 -230 25 -150 14 -399 56 -475 80 -33 11 -89 24 -125
30 -85 15 -117 30 -181 80 -29 23 -78 54 -109 70 -41 21 -60 37 -73 64 -38 81
-9 140 97 198 37 21 85 53 106 71 41 38 73 51 170 67 36 6 90 19 120 30 30 10
91 23 135 29 44 7 114 18 155 26 41 8 136 20 210 26 74 6 155 15 180 20 47 9
411 27 665 33 254 6 1340 -4 1522 -14z m59717 10 c268 -7 456 -16 575 -29 97
-11 226 -25 287 -31 126 -13 344 -60 347 -75 4 -18 -207 -61 -414 -85 -192
-22 -215 -23 -399 -11 -107 6 -242 20 -300 31 -252 47 -1222 50 -1352 5 -60
-21 -74 -37 -50 -57 41 -36 97 -43 462 -58 135 -6 297 -15 360 -20 63 -6 291
-17 505 -25 215 -8 419 -19 455 -24 36 -5 133 -15 215 -21 83 -6 186 -15 230
-21 78 -10 348 -69 412 -90 46 -15 73 -53 73 -103 0 -77 -38 -106 -183 -137
-51 -11 -112 -26 -137 -34 -25 -8 -126 -24 -225 -36 -99 -11 -212 -24 -252
-29 -40 -5 -242 -14 -450 -19 -208 -6 -443 -13 -523 -16 -265 -10 -1415 23
-1525 44 -27 5 -106 14 -175 21 -69 6 -172 19 -230 30 -58 10 -130 22 -160 26
-100 12 -128 34 -67 53 55 18 266 50 402 61 72 6 157 15 190 20 91 15 183 12
312 -9 375 -62 417 -65 1018 -65 589 -1 667 4 746 44 21 11 39 27 39 35 0 26
-60 47 -159 56 -325 30 -510 42 -871 54 -223 8 -443 19 -490 24 -47 6 -182 15
-300 21 -118 6 -254 17 -301 25 -47 8 -128 19 -180 25 -52 6 -132 21 -179 34
-47 14 -103 27 -124 31 -75 13 -117 36 -133 72 -12 31 -12 38 4 71 16 33 26
40 88 59 185 58 299 83 475 103 102 11 225 25 273 31 210 24 1087 34 1711 19z
m-71199 -10 c187 -5 377 -14 421 -19 45 -5 149 -15 230 -21 82 -6 181 -18 219
-26 39 -8 112 -22 163 -30 110 -17 134 -26 227 -86 121 -79 131 -95 95 -141
-35 -45 -198 -145 -254 -157 -312 -64 -325 -66 -631 -85 -132 -9 -247 -19
-255 -22 -8 -3 -332 -9 -720 -13 -753 -7 -787 -10 -783 -55 1 -10 3 -50 5 -89
3 -68 2 -71 -23 -83 -73 -35 -1030 -45 -1124 -12 l-40 14 -3 392 -2 392 26 17
c17 11 58 20 117 24 140 11 1946 10 2332 0z m5930 -11 l50 -14 3 -51 c3 -50 2
-52 -30 -63 -61 -22 -291 -30 -844 -31 -591 0 -639 -4 -664 -51 -8 -13 -10
-117 -8 -309 l3 -290 -30 -10 c-91 -33 -1040 -40 -1130 -9 l-40 14 -5 305 c-3
168 -9 310 -13 317 -19 29 -92 33 -687 33 -584 0 -757 7 -804 32 -30 15 -32
22 -28 68 5 51 20 59 125 70 45 4 975 7 2067 6 1699 -2 1992 -4 2035 -17z
m9619 1 c49 -19 61 -37 47 -73 -20 -51 -59 -59 -341 -68 -140 -4 -271 -12
-290 -18 l-35 -11 0 -245 0 -245 30 -11 c17 -6 143 -15 280 -19 138 -5 267
-14 287 -20 43 -12 80 -54 76 -84 -7 -52 11 -51 -1258 -51 -1334 0 -1314 -1
-1296 70 7 26 48 52 106 67 19 5 148 12 285 17 167 4 258 11 273 19 22 13 22
14 22 258 l0 244 -27 12 c-16 6 -137 14 -288 18 -281 8 -324 16 -358 63 -40
52 -4 74 143 87 52 4 592 7 1200 6 946 -1 1111 -4 1144 -16z m3586 1 c52 -6
199 -19 325 -30 144 -13 273 -30 345 -46 63 -15 143 -33 178 -40 77 -18 114
-43 148 -101 31 -53 28 -84 -14 -151 -33 -53 -57 -65 -197 -98 -209 -50 -297
-65 -438 -75 -78 -6 -221 -18 -317 -27 -124 -11 -381 -18 -880 -23 -659 -8
-769 -13 -789 -37 -4 -4 -5 -44 -1 -88 4 -44 2 -85 -2 -92 -21 -27 -112 -35
-483 -40 -375 -5 -571 4 -615 27 -19 10 -20 24 -20 400 l0 390 24 16 c15 9 62
19 113 24 121 12 2503 3 2623 -9z m5444 9 c223 -12 241 -17 250 -71 4 -22 4
-44 1 -49 -22 -35 -286 -50 -910 -50 -523 0 -620 -6 -665 -39 l-25 -18 0 -296
0 -297 -29 -10 c-96 -33 -971 -41 -1061 -9 l-40 14 -5 304 -5 304 -28 21 c-28
21 -37 21 -715 27 -583 5 -697 9 -756 23 -39 8 -74 20 -78 24 -5 5 -6 27 -2
50 6 39 10 43 48 53 22 6 84 15 136 19 143 11 3676 11 3884 0z m3453 -9 c84
-12 122 -28 181 -76 28 -22 73 -44 127 -60 45 -14 98 -37 116 -50 87 -63 126
-86 178 -100 86 -24 110 -35 154 -72 52 -44 94 -65 184 -92 45 -13 87 -34 114
-57 54 -45 95 -66 186 -93 52 -15 86 -33 125 -67 38 -32 72 -51 123 -66 101
-30 165 -58 165 -74 0 -34 -73 -39 -580 -38 -512 1 -604 7 -647 41 -12 10 -37
30 -56 46 -84 67 -287 80 -1227 75 -650 -4 -742 -7 -800 -22 -121 -31 -195
-59 -250 -92 -48 -30 -69 -35 -155 -44 -128 -12 -656 -12 -846 0 -201 13 -225
24 -115 54 42 12 79 30 112 58 61 50 81 60 176 88 53 16 91 34 124 62 59 48
82 61 159 83 74 21 124 46 150 75 26 29 76 54 150 75 75 22 124 46 150 75 26
29 76 54 150 75 76 22 101 35 156 81 24 20 55 41 69 46 82 32 237 71 310 78
117 12 1228 4 1317 -9z m5182 0 c66 -13 74 -30 68 -133 -6 -85 -5 -88 20 -108
40 -31 130 -26 344 19 354 75 509 107 649 131 58 10 132 25 165 33 33 8 85 18
115 22 30 4 96 16 145 27 80 18 140 20 540 25 537 6 758 -7 723 -42 -2 -3 -52
-12 -109 -20 -57 -9 -127 -22 -155 -30 -28 -8 -91 -21 -140 -29 -86 -13 -538
-102 -774 -151 -63 -14 -146 -29 -185 -34 -69 -10 -303 -66 -312 -75 -6 -5 20
-13 76 -21 25 -4 69 -16 99 -26 30 -10 103 -28 162 -39 59 -11 134 -29 165
-40 32 -11 97 -27 144 -35 47 -9 113 -25 146 -35 33 -11 93 -25 134 -31 41 -6
109 -21 151 -34 43 -13 115 -31 161 -40 46 -9 111 -25 144 -36 33 -10 107 -28
165 -39 58 -11 130 -27 160 -36 41 -13 94 -18 205 -18 182 -1 234 10 301 65
61 51 81 61 176 89 53 16 91 34 124 62 59 48 82 61 159 83 74 21 124 46 150
75 26 29 76 54 150 75 75 22 124 46 150 75 26 29 76 54 150 75 76 22 101 35
156 81 50 41 58 45 193 86 65 19 142 33 220 40 148 13 1178 4 1283 -11 84 -12
122 -28 181 -76 28 -22 73 -44 127 -60 45 -14 98 -37 116 -50 87 -63 126 -86
178 -100 86 -24 110 -35 154 -72 52 -44 94 -65 184 -92 45 -13 87 -34 114 -57
54 -45 95 -66 186 -93 52 -15 86 -33 125 -67 38 -32 72 -51 123 -66 101 -30
165 -58 165 -74 0 -34 -73 -39 -580 -38 -512 1 -604 7 -647 41 -12 10 -37 30
-56 46 -84 67 -287 80 -1227 75 -650 -4 -742 -7 -800 -22 -121 -31 -195 -59
-251 -93 -82 -50 -194 -58 -694 -48 -468 10 -592 10 -1260 0 -546 -8 -738 0
-841 33 -34 11 -99 27 -146 36 -46 9 -117 27 -157 41 -39 13 -111 31 -159 39
-48 8 -105 22 -126 31 -20 9 -90 27 -154 40 -65 13 -141 33 -170 44 -65 26
-350 65 -415 57 -27 -3 -65 -13 -85 -23 l-37 -18 4 -122 c3 -117 2 -122 -19
-133 -41 -22 -317 -32 -705 -26 -349 5 -470 14 -485 34 -3 4 -4 184 -2 400 l3
393 27 11 c15 5 97 14 182 18 187 10 867 3 929 -9z m11351 -1 c52 -5 181 -16
285 -25 311 -25 330 -29 580 -104 136 -41 170 -83 130 -160 -14 -28 -75 -61
-140 -77 -16 -4 -64 -20 -105 -36 -49 -20 -113 -34 -190 -44 -63 -7 -137 -18
-165 -24 -27 -5 -95 -14 -150 -20 -127 -13 -165 -20 -165 -30 0 -13 117 -48
217 -65 50 -8 108 -22 128 -31 20 -8 89 -26 153 -39 65 -13 140 -32 167 -43
28 -11 95 -27 149 -36 55 -9 107 -21 116 -26 9 -5 47 -16 86 -24 129 -29 121
-27 102 -37 -30 -17 -296 -29 -635 -29 -403 0 -602 12 -727 46 -144 38 -322
81 -510 124 -70 16 -151 38 -180 49 -28 10 -85 24 -126 30 -41 7 -104 21 -140
33 -55 18 -96 22 -270 25 -154 3 -216 1 -250 -9 l-45 -14 4 -121 c3 -117 2
-122 -19 -133 -41 -22 -317 -32 -705 -26 -349 5 -470 14 -485 34 -3 4 -4 184
-2 400 l3 393 27 11 c15 5 97 14 182 18 212 11 2561 3 2680 -10z m2485 10
c185 -13 265 -29 344 -70 34 -18 105 -43 158 -56 52 -13 118 -37 147 -53 28
-16 95 -41 148 -55 54 -14 117 -35 140 -47 69 -36 165 -37 263 -4 43 14 108
33 143 41 36 8 95 30 131 49 37 18 106 43 154 54 48 11 117 36 155 55 48 24
109 43 203 61 126 26 155 28 484 32 343 5 617 -6 653 -26 24 -14 -113 -74
-237 -105 -54 -13 -120 -35 -147 -49 -27 -13 -85 -32 -129 -42 -44 -9 -114
-32 -156 -51 -41 -18 -109 -40 -149 -49 -40 -9 -108 -31 -149 -49 -42 -19
-112 -41 -156 -50 -43 -9 -117 -34 -165 -55 -47 -22 -101 -42 -120 -46 -77
-15 -79 -19 -82 -173 l-3 -137 -50 -14 c-36 -9 -154 -15 -420 -18 -381 -5
-601 5 -639 31 -18 11 -19 23 -17 130 3 145 -2 156 -91 180 -35 10 -97 33
-139 52 -41 18 -109 40 -149 49 -40 9 -108 31 -150 50 -42 19 -110 41 -150 50
-40 9 -108 31 -149 49 -42 19 -112 42 -156 51 -44 10 -106 30 -138 46 -31 16
-98 39 -149 50 -85 20 -211 70 -223 89 -16 25 143 37 530 38 171 1 377 -3 460
-8z m6405 -14 c126 -27 195 -54 244 -97 34 -30 71 -49 147 -74 76 -26 115 -46
156 -79 41 -34 75 -52 141 -71 65 -20 103 -39 152 -76 47 -36 88 -57 145 -74
81 -25 99 -34 175 -93 25 -19 79 -43 126 -58 45 -13 97 -36 115 -49 89 -65
125 -84 187 -100 108 -26 118 -40 40 -56 -71 -15 -866 -23 -1003 -10 -106 9
-125 14 -170 42 -72 45 -245 96 -373 110 -73 7 -350 9 -877 6 -922 -5 -961 -9
-1054 -91 -76 -67 -106 -71 -676 -70 -486 0 -573 5 -562 37 4 12 68 37 142 57
41 10 62 22 148 84 27 20 84 46 132 61 50 15 99 37 118 53 61 53 92 70 179 96
67 21 100 37 138 70 52 44 88 61 192 90 37 11 73 30 103 56 58 50 81 62 176
90 56 16 92 34 130 66 116 95 205 103 1004 99 457 -2 563 -6 625 -19z m5219
14 c57 -5 125 -16 150 -25 25 -8 81 -21 123 -29 42 -8 110 -29 150 -46 40 -17
109 -38 153 -46 44 -9 112 -29 150 -46 39 -16 111 -38 160 -48 50 -10 116 -31
148 -45 75 -35 248 -67 367 -68 83 -1 103 2 157 26 35 15 102 36 150 47 49 12
120 33 158 49 39 16 101 34 140 41 38 6 101 25 139 42 38 16 110 38 160 48 50
10 113 29 141 41 27 12 72 28 100 35 90 24 448 37 860 31 379 -6 514 -16 542
-38 10 -9 13 -89 13 -400 l0 -389 -27 -11 c-51 -19 -385 -31 -718 -26 -323 5
-434 16 -436 40 0 7 0 103 1 214 1 198 1 201 -22 217 -39 28 -156 21 -242 -13
-40 -16 -109 -36 -155 -46 -45 -9 -106 -27 -135 -40 -29 -13 -96 -33 -150 -44
-54 -12 -123 -32 -155 -45 -97 -42 -306 -68 -566 -73 -174 -3 -248 -1 -305 10
-225 43 -335 70 -397 96 -38 16 -100 35 -138 42 -39 6 -109 26 -156 45 -47 18
-128 40 -180 48 -52 9 -116 23 -143 31 -54 17 -123 19 -145 6 -11 -7 -13 -50
-12 -229 3 -258 14 -237 -131 -252 -120 -13 -696 -13 -816 0 -147 16 -132 -32
-132 420 l0 390 24 16 c15 9 61 19 113 23 127 12 939 12 1062 1z m6040 -9 c25
-5 51 -17 58 -27 10 -13 13 -76 13 -256 0 -269 5 -297 62 -323 18 -8 103 -29
188 -46 154 -31 157 -31 560 -36 440 -6 776 7 875 32 104 27 256 97 279 128
20 27 21 45 26 270 l5 242 50 13 c35 10 151 15 385 19 337 5 575 -5 638 -27
l32 -12 0 -226 c0 -125 -5 -243 -10 -262 -12 -42 -76 -136 -110 -162 -25 -18
-234 -78 -360 -103 -36 -7 -130 -21 -210 -31 -80 -9 -172 -20 -205 -24 -33 -4
-324 -16 -646 -25 -554 -17 -617 -17 -1171 -1 -364 10 -621 22 -679 31 -52 7
-141 19 -199 25 -99 10 -319 49 -403 71 -21 6 -63 26 -93 45 -30 19 -73 42
-95 49 -22 8 -54 24 -71 36 -54 39 -58 63 -58 334 l0 245 28 11 c15 6 97 15
182 19 187 10 867 3 929 -9z m12306 9 c175 -14 204 -28 193 -101 -8 -57 -162
-69 -888 -69 -322 0 -603 -5 -624 -10 -69 -16 -67 -4 -69 -341 l-2 -304 -40
-15 c-33 -12 -117 -15 -490 -15 -444 0 -584 8 -601 36 -3 6 -5 139 -4 298 1
270 0 288 -18 304 -42 38 -75 40 -737 47 -625 7 -778 15 -827 41 -21 11 -25
81 -5 97 20 16 76 25 217 32 209 11 3758 11 3895 0z m3069 -7 c53 -15 70 -35
62 -68 -5 -19 -20 -32 -54 -48 -42 -18 -73 -21 -302 -27 -150 -4 -266 -12
-282 -18 l-28 -12 0 -245 0 -245 28 -12 c15 -6 132 -14 272 -19 135 -4 261
-12 281 -18 78 -24 116 -86 69 -111 -49 -26 -255 -31 -1330 -28 -952 3 -1111
5 -1145 18 -45 17 -54 39 -30 76 32 49 70 56 340 64 143 4 263 12 280 19 l30
11 0 245 0 245 -30 11 c-17 6 -142 14 -285 19 -140 4 -264 11 -275 15 -61 24
-87 93 -44 116 12 6 54 15 93 19 115 13 2304 6 2350 -7z m2025 -2 c66 -13 74
-30 68 -133 -6 -85 -5 -88 20 -108 40 -31 130 -26 344 19 354 75 509 107 649
131 58 10 132 25 165 33 33 8 85 18 115 22 30 4 96 16 145 27 80 18 140 20
540 25 537 6 758 -7 723 -42 -2 -3 -52 -12 -109 -20 -57 -9 -127 -22 -155 -30
-28 -8 -91 -21 -140 -29 -86 -13 -538 -102 -774 -151 -63 -14 -146 -29 -185
-34 -69 -10 -303 -66 -312 -75 -6 -5 20 -13 76 -21 25 -4 69 -16 99 -26 30
-10 103 -28 162 -39 59 -11 134 -29 165 -40 32 -11 97 -27 144 -35 47 -9 113
-25 146 -35 33 -11 92 -24 130 -30 39 -6 108 -22 155 -35 47 -14 128 -34 180
-44 52 -11 115 -27 140 -36 24 -9 86 -22 137 -31 51 -8 106 -19 121 -25 15 -6
72 -19 126 -30 55 -11 102 -21 104 -23 20 -20 -306 -36 -753 -36 -459 1 -621
9 -711 38 -34 11 -99 27 -146 36 -46 9 -117 27 -157 41 -39 13 -111 31 -159
39 -48 8 -105 22 -126 31 -20 9 -90 27 -154 40 -65 13 -141 33 -170 44 -65 26
-350 65 -415 57 -27 -3 -65 -13 -85 -23 l-37 -18 4 -122 c3 -117 2 -122 -19
-133 -41 -22 -317 -32 -705 -26 -349 5 -470 14 -485 34 -3 4 -4 184 -2 400 l3
393 27 11 c15 5 97 14 182 18 187 10 867 3 929 -9z m6311 -1 c25 -6 68 -26 95
-45 28 -18 88 -45 135 -59 65 -19 98 -36 140 -71 43 -35 76 -52 150 -75 73
-23 108 -40 149 -74 59 -49 69 -53 177 -86 48 -15 88 -36 120 -62 59 -49 87
-64 150 -79 62 -15 133 -50 159 -79 26 -29 74 -52 161 -78 69 -21 164 -76 171
-99 3 -7 -15 -18 -39 -25 -61 -18 -906 -18 -1031 0 -109 16 -186 44 -218 78
-43 47 -81 56 -279 65 -258 11 -1579 11 -1669 -1 -47 -6 -91 -19 -120 -36 -73
-41 -272 -104 -363 -114 -106 -13 -693 -12 -819 0 -140 13 -154 22 -96 59 17
12 47 32 66 46 19 14 67 35 105 47 90 27 121 42 173 88 30 26 69 45 140 68 75
24 111 42 153 77 42 35 78 52 152 76 74 24 108 41 148 75 37 32 73 50 131 69
98 31 134 49 180 90 23 21 67 43 120 60 46 15 111 41 143 58 46 22 81 31 150
37 139 13 1312 4 1366 -10z m6445 10 c198 -5 389 -14 425 -19 36 -6 130 -15
209 -21 203 -15 428 -55 531 -95 47 -18 102 -38 123 -45 21 -6 51 -23 67 -37
25 -21 30 -32 30 -70 0 -55 -32 -91 -105 -118 -27 -10 -85 -34 -129 -53 -52
-23 -110 -39 -170 -47 -50 -7 -125 -20 -166 -28 -41 -9 -156 -21 -255 -27 -99
-6 -223 -16 -275 -22 -52 -5 -414 -13 -805 -17 -525 -5 -718 -11 -741 -20
l-31 -12 5 -93 c4 -90 4 -94 -18 -106 -41 -22 -316 -32 -705 -26 -349 5 -470
14 -485 34 -3 4 -4 184 -2 400 l3 393 27 11 c15 5 97 14 182 18 232 10 1872
11 2285 0z m4785 -14 c126 -27 195 -54 244 -97 34 -30 71 -49 147 -74 76 -26
115 -46 156 -79 41 -34 75 -52 141 -71 65 -20 103 -39 152 -76 47 -36 88 -57
145 -74 81 -25 99 -34 175 -93 25 -19 79 -43 126 -58 45 -13 97 -36 115 -49
90 -66 125 -84 189 -100 75 -18 103 -38 73 -50 -59 -23 -859 -34 -1058 -15
-85 9 -107 15 -150 41 -72 45 -245 96 -373 110 -73 7 -350 9 -877 6 -922 -5
-961 -9 -1054 -91 -76 -67 -106 -71 -676 -70 -486 0 -573 5 -562 37 4 12 68
37 142 57 41 10 62 22 148 84 27 20 84 46 132 61 50 15 99 37 118 53 61 53 92
70 179 96 67 21 100 37 138 70 52 44 88 61 192 90 37 11 73 30 103 56 58 50
81 62 176 90 56 16 92 34 130 66 116 95 205 103 1004 99 457 -2 563 -6 625
-19z m4980 5 c52 -6 199 -19 325 -30 144 -13 273 -30 345 -46 63 -15 144 -33
179 -41 81 -18 105 -33 142 -92 36 -56 34 -91 -8 -158 -34 -54 -58 -66 -198
-99 -209 -50 -297 -65 -438 -75 -78 -6 -221 -18 -317 -27 -124 -11 -381 -18
-880 -23 -659 -8 -769 -13 -789 -37 -4 -4 -5 -44 -1 -88 4 -44 2 -85 -2 -92
-21 -27 -112 -35 -483 -40 -375 -5 -571 4 -615 27 -19 10 -20 24 -20 400 l0
390 24 16 c15 9 62 19 113 24 121 12 2503 3 2623 -9z m2884 -1 c38 -6 75 -15
83 -21 10 -9 13 -61 13 -231 0 -235 4 -257 56 -326 33 -42 49 -48 219 -80 139
-26 143 -26 675 -26 466 -1 550 1 650 17 167 26 215 42 265 88 73 67 75 78 75
327 0 170 3 222 13 231 28 22 163 32 522 38 406 6 574 -3 608 -34 18 -17 19
-31 15 -278 -3 -250 -4 -262 -27 -301 -28 -49 -56 -67 -141 -89 -36 -9 -91
-27 -123 -40 -79 -33 -172 -50 -456 -85 -218 -27 -303 -32 -812 -47 -527 -15
-609 -15 -1139 0 -429 13 -615 22 -748 38 -233 27 -461 65 -514 85 -24 9 -86
31 -139 49 -185 63 -182 57 -187 397 l-4 256 27 18 c17 11 58 20 118 25 128
10 867 2 951 -11z m6836 -4 c126 -27 195 -54 244 -97 34 -30 71 -49 147 -74
76 -26 115 -46 156 -79 41 -34 75 -52 141 -71 65 -20 103 -39 152 -76 47 -36
88 -57 145 -74 81 -25 99 -34 175 -93 25 -19 79 -43 126 -58 45 -13 97 -36
115 -49 89 -65 125 -84 187 -100 108 -26 118 -40 40 -56 -71 -15 -866 -23
-1003 -10 -106 9 -125 14 -170 42 -72 45 -245 96 -373 110 -73 7 -350 9 -877
6 -922 -5 -961 -9 -1054 -91 -76 -67 -106 -71 -676 -70 -486 0 -573 5 -562 37
4 12 68 37 142 57 41 10 62 22 148 84 27 20 84 46 132 61 50 15 99 37 118 53
61 53 92 70 179 96 67 21 100 37 138 70 52 44 88 61 192 90 37 11 73 30 103
56 58 50 81 62 176 90 56 16 92 34 130 66 116 95 205 103 1004 99 457 -2 563
-6 625 -19z"/>
<path d="M33965 15774 c-33 -7 -98 -18 -145 -25 -47 -6 -123 -19 -170 -29 -47
-10 -119 -22 -160 -25 -41 -4 -109 -15 -150 -25 -41 -10 -109 -22 -150 -25
-41 -4 -109 -15 -150 -25 -41 -10 -109 -22 -150 -25 -41 -4 -109 -15 -150 -25
-41 -10 -109 -22 -150 -25 -41 -4 -109 -15 -150 -25 -41 -10 -109 -22 -150
-25 -41 -4 -109 -15 -150 -25 -41 -10 -109 -22 -150 -25 -41 -4 -109 -15 -150
-25 -41 -10 -109 -22 -150 -25 -41 -4 -109 -15 -150 -25 -41 -10 -109 -22
-150 -25 -41 -4 -109 -15 -150 -25 -41 -10 -109 -22 -150 -25 -41 -4 -109 -15
-150 -25 -41 -10 -109 -22 -150 -25 -41 -4 -109 -15 -150 -25 -41 -10 -121
-23 -176 -29 -56 -6 -114 -15 -128 -21 -15 -5 -83 -17 -152 -25 -68 -9 -136
-20 -150 -25 -14 -6 -81 -17 -150 -25 -68 -9 -136 -20 -150 -25 -14 -6 -81
-17 -150 -25 -68 -9 -136 -20 -150 -25 -14 -6 -81 -17 -150 -25 -68 -9 -136
-20 -150 -25 -14 -6 -81 -17 -150 -25 -68 -9 -136 -20 -150 -25 -14 -6 -81
-17 -150 -25 -68 -9 -136 -20 -150 -25 -14 -6 -81 -17 -150 -25 -68 -9 -136
-20 -150 -25 -14 -6 -81 -17 -150 -25 -68 -9 -136 -20 -150 -25 -14 -6 -81
-17 -150 -25 -68 -9 -136 -20 -150 -25 -14 -6 -78 -16 -142 -24 -64 -8 -142
-21 -173 -29 -30 -8 -91 -18 -135 -22 -43 -4 -113 -15 -154 -25 -41 -10 -109
-21 -150 -25 -41 -4 -109 -15 -150 -25 -41 -10 -109 -21 -150 -25 -41 -4 -109
-15 -150 -25 -41 -10 -109 -21 -150 -25 -41 -4 -109 -15 -150 -25 -41 -10
-109 -21 -150 -25 -41 -4 -109 -15 -150 -25 -41 -10 -109 -21 -150 -25 -41 -4
-109 -15 -150 -25 -41 -10 -109 -21 -150 -25 -41 -4 -109 -15 -150 -25 -41
-10 -109 -21 -150 -25 -41 -4 -109 -15 -150 -25 -41 -10 -109 -21 -150 -25
-41 -4 -109 -15 -150 -25 -41 -10 -109 -21 -150 -25 -41 -4 -109 -15 -150 -25
-41 -10 -109 -21 -150 -25 -41 -4 -109 -15 -150 -25 -41 -10 -109 -21 -150
-25 -41 -4 -111 -15 -155 -25 -44 -10 -114 -21 -155 -25 -41 -4 -109 -15 -150
-25 -41 -10 -109 -22 -150 -25 -41 -4 -109 -15 -150 -25 -41 -10 -109 -22
-150 -25 -41 -4 -109 -15 -150 -25 -41 -10 -109 -22 -150 -25 -41 -4 -109 -15
-150 -25 -41 -10 -109 -22 -150 -25 -41 -4 -109 -15 -150 -25 -41 -10 -109
-22 -150 -25 -41 -4 -109 -15 -150 -25 -41 -10 -109 -22 -150 -25 -41 -4 -109
-15 -150 -25 -41 -10 -109 -22 -150 -25 -41 -4 -109 -15 -150 -25 -41 -10
-109 -22 -150 -25 -41 -4 -109 -15 -150 -25 -41 -10 -109 -22 -150 -25 -41 -4
-109 -15 -150 -25 -41 -10 -109 -22 -150 -25 -41 -4 -101 -13 -132 -21 -32 -8
-112 -21 -178 -29 -65 -8 -130 -19 -144 -25 -14 -5 -82 -16 -150 -25 -69 -8
-136 -19 -150 -25 -14 -5 -82 -16 -150 -25 -69 -8 -136 -19 -150 -25 -14 -5
-82 -16 -150 -25 -69 -8 -136 -19 -150 -25 -14 -5 -82 -16 -150 -25 -69 -8
-136 -19 -150 -25 -14 -5 -82 -16 -150 -25 -69 -8 -136 -19 -150 -25 -14 -5
-82 -16 -150 -25 -69 -8 -136 -19 -150 -25 -14 -5 -82 -16 -150 -25 -69 -8
-137 -20 -151 -25 -15 -6 -80 -16 -146 -24 -66 -8 -126 -19 -134 -26 -39 -33
-1 -53 125 -66 36 -3 103 -14 150 -24 47 -10 126 -23 175 -30 50 -6 115 -17
145 -25 30 -7 82 -16 115 -20 33 -3 107 -15 164 -27 159 -32 257 -23 796 66
253 42 1002 167 1665 276 663 110 1257 209 1320 220 157 27 342 58 480 80 129
20 250 41 420 70 204 35 363 61 460 76 52 8 129 21 170 28 41 8 165 29 275 46
110 17 247 39 305 50 58 10 139 24 180 29 41 6 107 17 145 25 39 8 97 17 130
21 33 4 101 15 150 25 50 10 117 21 150 25 33 4 101 15 150 25 50 10 117 21
150 25 33 4 101 15 150 25 50 10 117 21 150 25 33 4 101 15 150 25 50 10 117
21 150 25 33 4 92 14 130 22 39 7 113 20 165 28 135 20 337 53 460 75 58 10
130 22 160 25 30 4 96 15 145 25 50 10 117 21 150 25 33 4 101 15 150 25 50
10 117 21 150 25 33 4 101 15 150 25 50 10 117 21 150 25 33 4 101 15 150 25
50 10 117 21 150 25 33 4 92 13 130 21 39 8 104 19 145 25 41 5 122 19 180 29
120 22 262 45 400 66 52 8 145 23 205 34 129 23 262 45 395 65 52 8 145 24
205 35 129 23 262 45 395 65 52 8 145 24 205 35 134 24 262 45 420 70 66 10
161 25 210 34 109 19 247 42 375 61 52 8 145 24 205 35 129 23 262 45 395 65
52 8 145 24 205 35 129 23 262 45 395 65 52 8 145 24 205 35 129 23 262 45
395 65 52 8 145 24 205 34 420 75 562 84 742 47 37 -8 97 -17 133 -21 36 -4
98 -13 139 -22 41 -8 128 -23 195 -33 160 -25 287 -46 421 -70 61 -11 153 -27
205 -35 133 -20 266 -42 395 -65 61 -11 153 -27 205 -35 133 -20 266 -42 395
-65 61 -11 153 -27 205 -35 133 -20 266 -42 395 -65 61 -11 153 -27 205 -35
133 -20 266 -42 395 -65 61 -11 153 -27 205 -35 133 -20 266 -42 395 -65 61
-11 153 -27 205 -35 133 -20 266 -42 395 -65 61 -11 153 -27 205 -35 133 -20
266 -42 395 -65 61 -11 153 -27 205 -35 133 -20 266 -42 395 -65 61 -11 153
-27 205 -35 128 -19 266 -42 375 -61 50 -9 144 -24 210 -34 158 -25 286 -46
420 -70 61 -11 153 -27 205 -35 133 -20 266 -42 395 -65 61 -11 153 -27 205
-35 133 -20 266 -42 395 -65 61 -11 153 -27 205 -35 133 -20 266 -42 395 -65
61 -11 153 -27 205 -35 133 -20 266 -42 395 -65 61 -11 153 -27 205 -35 133
-20 266 -42 395 -65 61 -11 153 -27 205 -35 133 -20 266 -42 395 -65 61 -11
153 -27 205 -35 133 -20 266 -42 395 -65 61 -11 153 -27 205 -35 133 -20 266
-42 395 -65 61 -11 153 -27 205 -35 133 -20 266 -42 395 -65 61 -11 153 -27
205 -35 133 -20 266 -42 395 -65 61 -11 153 -27 205 -35 133 -20 266 -42 395
-65 61 -11 153 -27 205 -35 133 -20 266 -42 395 -65 61 -11 153 -27 205 -35
91 -14 151 -23 400 -65 194 -33 338 -36 461 -12 57 12 141 26 186 31 46 6 109
17 140 25 32 8 90 18 128 21 39 4 108 15 155 26 47 10 125 23 175 29 113 14
205 53 181 77 -3 3 -47 10 -98 15 -51 5 -127 18 -168 28 -41 10 -111 21 -155
25 -44 4 -111 15 -150 25 -38 10 -106 22 -150 25 -44 4 -111 15 -150 25 -38
10 -106 22 -150 25 -44 4 -111 15 -150 25 -38 10 -106 22 -150 25 -44 4 -111
15 -150 25 -38 10 -106 22 -150 25 -44 4 -111 15 -150 25 -38 10 -115 23 -171
29 -55 6 -116 17 -135 25 -19 8 -80 18 -134 21 -55 4 -124 16 -153 26 -29 10
-97 21 -150 25 -53 3 -121 15 -150 25 -29 10 -97 21 -150 25 -53 3 -121 15
-150 25 -29 10 -97 21 -150 25 -53 3 -121 15 -150 25 -29 10 -97 21 -150 25
-53 3 -121 15 -150 25 -29 10 -97 21 -150 25 -53 3 -121 15 -150 25 -29 10
-97 21 -150 25 -53 3 -121 15 -150 25 -29 10 -97 21 -150 25 -53 3 -121 15
-150 25 -29 10 -97 21 -150 25 -53 3 -121 15 -150 25 -29 10 -97 21 -150 25
-53 3 -121 15 -150 25 -29 10 -97 21 -150 25 -53 3 -121 15 -150 25 -29 10
-97 21 -150 25 -53 3 -121 15 -150 25 -29 10 -97 21 -150 25 -53 3 -121 15
-150 25 -29 10 -97 21 -150 25 -53 3 -121 15 -150 25 -29 10 -97 21 -150 25
-53 3 -121 15 -150 25 -29 10 -97 21 -150 25 -53 3 -121 15 -150 25 -29 10
-97 21 -150 25 -53 3 -121 15 -150 25 -29 10 -97 21 -150 25 -53 3 -121 15
-150 25 -29 10 -97 21 -150 25 -53 3 -121 15 -150 25 -29 10 -97 21 -150 25
-53 3 -121 15 -150 25 -29 10 -97 21 -150 25 -53 3 -121 15 -150 25 -29 10
-97 21 -150 25 -53 3 -121 15 -150 25 -29 10 -97 21 -150 25 -53 3 -121 15
-150 25 -29 10 -97 21 -150 25 -53 3 -121 15 -150 25 -29 10 -97 21 -150 25
-53 3 -121 15 -150 25 -29 10 -97 21 -150 25 -53 3 -121 15 -150 25 -29 10
-97 21 -150 25 -53 3 -121 15 -150 25 -29 10 -97 21 -150 25 -53 3 -121 15
-150 25 -29 10 -97 21 -150 25 -53 3 -121 15 -150 25 -29 10 -97 21 -150 25
-53 3 -121 15 -150 25 -29 10 -97 21 -150 25 -53 3 -121 15 -150 25 -29 10
-97 21 -150 25 -53 3 -121 15 -150 25 -29 10 -97 21 -150 25 -53 3 -121 15
-150 24 -28 10 -94 22 -145 25 -50 4 -117 16 -146 26 -30 10 -98 22 -150 25
-53 4 -121 15 -150 25 -30 10 -98 22 -150 25 -53 4 -121 15 -150 25 -30 10
-98 22 -150 25 -53 4 -121 15 -150 25 -30 10 -98 22 -150 25 -53 4 -121 15
-150 25 -30 10 -98 22 -150 25 -53 4 -121 15 -150 25 -30 10 -98 22 -150 25
-53 4 -121 15 -150 25 -30 10 -98 22 -150 25 -53 4 -121 15 -150 25 -30 10
-98 22 -150 25 -53 4 -121 15 -150 25 -30 10 -98 22 -150 25 -53 4 -121 15
-150 25 -30 10 -98 22 -150 25 -53 4 -121 15 -150 25 -30 10 -98 22 -150 25
-53 4 -121 15 -150 25 -30 10 -98 22 -150 25 -53 4 -120 15 -150 25 -30 10
-95 21 -145 25 -50 3 -126 12 -170 20 -96 17 -192 17 -271 -2z"/>
<path d="M33980 15243 c-51 -3 -728 -115 -5087 -839 -909 -151 -2399 -398
-3310 -549 -912 -151 -1710 -284 -1773 -295 -157 -27 -342 -58 -480 -80 -129
-20 -250 -41 -420 -70 -159 -27 -343 -58 -480 -80 -129 -20 -250 -41 -420 -70
-159 -27 -343 -58 -480 -80 -134 -21 -259 -42 -420 -70 -63 -11 -203 -33 -310
-50 -107 -17 -242 -39 -300 -50 -58 -10 -127 -22 -155 -25 -27 -4 -95 -15
-150 -25 -55 -11 -122 -22 -150 -25 -27 -4 -95 -15 -150 -25 -55 -11 -122 -22
-150 -25 -27 -4 -84 -13 -127 -21 -42 -8 -129 -23 -195 -33 -123 -20 -173 -34
-173 -50 0 -13 21 -19 125 -31 50 -6 106 -15 125 -20 19 -5 94 -18 165 -29
162 -25 288 -46 430 -71 119 -22 263 -45 390 -62 70 -10 93 -9 185 10 58 12
130 24 160 27 30 4 93 15 140 25 47 10 117 22 155 25 39 4 106 15 150 25 44
10 112 22 150 25 39 4 106 15 150 25 44 10 112 22 150 25 39 4 106 15 150 25
44 10 112 22 150 25 39 4 106 15 150 25 44 10 112 22 150 25 39 4 106 15 150
25 44 10 112 22 150 25 39 4 106 15 150 25 44 10 112 22 150 25 39 4 106 15
150 25 44 10 112 22 150 25 39 4 106 15 150 25 44 10 112 22 150 25 39 4 106
15 150 25 44 10 112 22 150 25 39 4 106 15 150 25 44 10 112 22 150 25 39 4
106 15 150 25 44 10 112 22 150 25 39 4 106 15 150 25 44 10 112 22 150 25 39
4 106 15 150 25 44 10 112 22 150 25 39 4 106 15 150 25 44 10 112 22 150 25
39 4 106 15 150 25 44 10 112 22 150 25 39 4 106 15 150 25 44 10 112 22 150
25 39 4 106 15 150 25 44 10 112 22 150 25 39 4 106 15 150 25 44 10 112 22
150 25 39 4 106 15 150 25 44 10 112 22 150 25 39 4 106 15 150 25 44 10 112
22 150 25 39 4 106 15 150 25 44 10 109 21 145 25 36 4 103 15 150 25 47 10
114 21 150 25 36 4 103 15 150 25 47 10 114 21 150 25 36 4 103 15 150 25 47
10 114 21 150 25 36 4 103 15 150 25 47 10 114 21 150 25 36 4 103 15 150 25
47 10 114 21 150 25 36 4 103 15 150 25 47 10 114 21 150 25 36 4 103 15 150
25 47 10 114 21 150 25 36 4 103 15 150 25 47 10 114 21 150 25 36 4 103 15
150 25 47 10 114 21 150 25 36 4 103 15 150 25 47 10 114 21 150 25 36 4 103
15 150 25 47 10 114 21 150 25 36 4 103 15 150 25 47 10 114 21 150 25 36 4
103 15 150 25 47 10 114 21 150 25 36 4 103 15 150 25 47 10 114 21 150 25 36
4 103 15 150 25 47 10 114 21 150 25 36 4 103 15 150 25 47 10 114 21 150 25
36 4 103 15 150 25 47 10 114 21 150 25 36 4 103 15 150 25 47 10 114 21 150
25 36 4 103 15 150 25 47 10 114 21 150 25 36 4 103 15 150 25 47 10 114 21
150 25 36 4 103 15 150 25 47 10 114 21 150 25 36 4 106 16 155 28 80 20 117
22 350 22 217 0 269 -3 315 -17 30 -9 98 -22 150 -28 52 -6 124 -18 160 -26
35 -8 115 -21 177 -29 62 -9 123 -19 136 -24 13 -5 68 -14 123 -21 54 -6 126
-18 159 -26 33 -7 113 -21 177 -29 64 -8 128 -19 141 -24 13 -5 68 -14 123
-21 54 -6 126 -18 159 -26 33 -7 113 -21 177 -29 64 -8 128 -19 141 -24 13 -5
68 -14 123 -21 54 -6 126 -18 159 -26 33 -7 113 -21 177 -29 64 -8 128 -19
141 -24 13 -5 68 -14 123 -21 54 -6 124 -18 155 -26 31 -7 107 -20 170 -29 63
-8 130 -19 149 -25 19 -6 76 -15 125 -21 50 -6 128 -19 175 -29 47 -10 114
-21 150 -25 36 -3 103 -15 150 -25 47 -10 114 -21 150 -25 36 -3 103 -15 150
-25 47 -10 114 -21 150 -25 36 -3 103 -15 150 -25 47 -10 114 -21 150 -25 36
-3 103 -15 150 -25 47 -10 114 -21 150 -25 36 -3 103 -15 150 -25 47 -10 114
-21 150 -25 36 -3 103 -15 150 -25 47 -10 114 -21 150 -25 36 -3 103 -15 150
-25 47 -10 114 -21 150 -25 36 -3 103 -15 150 -25 47 -10 114 -21 150 -25 36
-3 103 -15 150 -25 47 -10 114 -21 150 -25 36 -3 103 -15 150 -25 47 -10 114
-21 150 -25 36 -3 103 -15 150 -25 47 -10 114 -21 150 -25 36 -3 103 -15 150
-25 47 -10 114 -21 150 -25 36 -3 103 -15 150 -25 47 -10 114 -21 150 -25 36
-3 103 -15 150 -25 47 -10 114 -21 150 -25 36 -3 103 -15 150 -25 47 -10 114
-21 150 -25 36 -3 103 -15 150 -25 47 -10 114 -21 150 -25 36 -3 103 -15 150
-25 47 -10 114 -21 150 -25 36 -3 103 -15 150 -25 47 -10 114 -21 150 -25 36
-3 103 -15 150 -25 47 -10 114 -21 150 -25 36 -3 103 -15 150 -25 47 -10 114
-21 150 -25 36 -3 103 -15 150 -25 47 -10 114 -21 150 -25 36 -3 103 -15 150
-25 47 -10 114 -21 150 -25 36 -3 94 -13 130 -21 35 -8 115 -21 177 -29 62 -9
124 -20 138 -25 14 -5 67 -14 118 -20 50 -6 130 -19 177 -30 47 -10 117 -21
155 -25 39 -4 106 -15 150 -25 44 -10 112 -21 150 -25 39 -4 106 -15 150 -25
44 -10 112 -21 150 -25 39 -4 106 -15 150 -25 44 -10 112 -21 150 -25 39 -4
106 -15 150 -25 44 -10 112 -21 150 -25 39 -4 106 -15 150 -25 44 -10 112 -21
150 -25 39 -4 96 -13 127 -21 32 -8 109 -21 170 -29 62 -9 142 -22 178 -30 75
-17 350 -20 420 -4 25 5 88 16 140 25 52 8 140 24 195 34 55 11 137 24 183 30
46 5 101 14 122 20 21 6 89 17 151 25 62 8 115 17 118 21 12 11 -28 23 -158
48 -301 57 -14491 2415 -14551 2418 -36 2 -90 2 -120 1z"/>
<path d="M34030 14683 c-14 -2 -54 -10 -90 -18 -36 -8 -105 -20 -155 -25 -49
-6 -115 -17 -145 -25 -30 -7 -98 -19 -150 -25 -52 -6 -120 -17 -150 -25 -30
-7 -86 -17 -125 -20 -38 -4 -108 -15 -155 -25 -47 -10 -114 -22 -150 -25 -36
-4 -103 -15 -150 -25 -47 -10 -114 -22 -150 -25 -36 -4 -103 -15 -150 -25 -47
-10 -114 -22 -150 -25 -36 -4 -103 -15 -150 -25 -47 -10 -114 -22 -150 -25
-36 -4 -103 -15 -150 -25 -47 -10 -114 -22 -150 -25 -36 -4 -103 -15 -150 -25
-47 -10 -114 -22 -150 -25 -36 -4 -103 -15 -150 -25 -47 -10 -114 -22 -150
-25 -36 -4 -103 -15 -150 -25 -47 -10 -114 -22 -150 -25 -36 -4 -103 -15 -150
-25 -47 -10 -114 -22 -150 -25 -36 -4 -103 -15 -150 -25 -47 -10 -114 -22
-150 -25 -36 -4 -103 -15 -150 -25 -47 -10 -114 -22 -150 -25 -36 -4 -103 -15
-150 -25 -47 -10 -128 -23 -180 -30 -52 -6 -120 -17 -150 -25 -30 -7 -86 -16
-125 -20 -38 -4 -106 -15 -150 -25 -44 -10 -111 -21 -150 -25 -38 -4 -108 -15
-155 -25 -47 -10 -114 -22 -150 -25 -36 -4 -103 -15 -150 -25 -47 -10 -125
-23 -175 -29 -49 -6 -106 -15 -125 -21 -19 -6 -86 -17 -149 -25 -63 -9 -139
-22 -170 -29 -31 -8 -87 -17 -126 -21 -38 -4 -106 -15 -150 -25 -44 -10 -111
-21 -150 -25 -38 -4 -106 -15 -150 -25 -44 -10 -111 -21 -150 -25 -38 -4 -106
-15 -150 -25 -44 -10 -111 -21 -150 -25 -38 -4 -106 -15 -150 -25 -44 -10
-111 -21 -150 -25 -38 -4 -106 -15 -150 -25 -44 -10 -111 -21 -150 -25 -38 -4
-106 -15 -150 -25 -44 -10 -111 -21 -150 -25 -38 -4 -108 -15 -155 -25 -47
-10 -130 -24 -184 -30 -55 -7 -110 -16 -122 -20 -13 -5 -79 -16 -146 -25 -68
-9 -136 -20 -151 -25 -16 -5 -83 -17 -150 -25 -67 -9 -135 -20 -150 -25 -16
-5 -83 -17 -150 -25 -67 -9 -135 -20 -150 -25 -16 -5 -83 -17 -150 -25 -67 -9
-135 -20 -150 -25 -16 -5 -83 -17 -150 -25 -67 -9 -135 -20 -150 -25 -16 -5
-83 -17 -150 -25 -67 -9 -135 -20 -150 -25 -16 -5 -83 -17 -150 -25 -67 -9
-135 -20 -150 -25 -16 -5 -83 -17 -150 -25 -67 -9 -135 -20 -150 -25 -16 -5
-83 -17 -150 -25 -67 -9 -135 -20 -150 -25 -16 -5 -83 -17 -150 -25 -67 -9
-135 -20 -150 -25 -16 -5 -83 -17 -149 -25 -67 -9 -144 -22 -172 -29 -28 -8
-85 -17 -126 -21 -41 -4 -113 -15 -160 -25 -47 -10 -125 -23 -175 -29 -49 -6
-106 -15 -125 -21 -19 -5 -87 -17 -150 -25 -63 -8 -131 -20 -150 -25 -19 -5
-88 -17 -154 -26 -113 -14 -176 -34 -176 -54 0 -16 17 -20 152 -40 73 -11 149
-24 168 -29 19 -5 78 -15 130 -21 52 -6 120 -17 150 -25 30 -8 93 -19 140 -25
47 -5 128 -19 180 -30 52 -11 107 -20 121 -20 15 0 85 -11 155 -24 71 -13 161
-29 199 -35 69 -10 129 -20 400 -66 77 -14 209 -36 293 -50 83 -14 220 -36
302 -50 83 -14 218 -36 300 -50 83 -14 216 -36 298 -50 81 -13 215 -35 297
-49 83 -14 218 -36 300 -50 83 -14 219 -37 303 -51 83 -14 218 -36 300 -50 81
-13 217 -36 302 -50 85 -14 218 -37 295 -50 336 -58 433 -74 485 -80 30 -4 82
-13 115 -20 33 -8 98 -19 145 -25 47 -6 114 -17 150 -25 36 -7 101 -18 145
-24 44 -6 130 -20 190 -31 61 -11 178 -31 260 -44 83 -14 220 -37 305 -51 85
-14 221 -37 303 -50 81 -14 213 -36 295 -50 328 -54 464 -77 597 -100 77 -13
163 -27 190 -31 28 -3 77 -12 110 -20 33 -7 98 -18 145 -24 47 -6 114 -17 150
-25 36 -7 103 -19 150 -25 47 -6 114 -17 150 -25 36 -7 103 -19 150 -25 47 -6
114 -17 150 -25 36 -7 103 -19 150 -25 47 -6 114 -17 150 -25 36 -7 103 -19
150 -25 47 -6 114 -17 150 -25 36 -7 103 -19 150 -25 47 -6 114 -17 150 -25
36 -7 103 -19 150 -25 47 -6 114 -17 150 -25 36 -7 103 -19 150 -25 47 -6 114
-17 150 -25 36 -7 103 -19 150 -25 47 -6 130 -20 185 -30 97 -18 175 -32 415
-70 140 -23 325 -54 480 -80 170 -29 291 -50 420 -70 171 -28 351 -58 475 -80
335 -59 491 -70 571 -40 13 5 78 16 144 25 66 9 132 20 145 25 13 5 75 16 137
24 62 8 142 22 178 30 36 8 94 17 130 21 36 4 103 15 150 25 47 10 114 22 150
25 36 4 103 15 150 25 47 10 114 22 150 25 36 4 103 15 150 25 47 10 114 22
150 25 36 4 103 15 150 25 47 10 114 22 150 25 36 4 103 15 150 25 47 10 114
22 150 25 36 4 103 15 150 25 47 10 114 22 150 25 36 4 103 15 150 25 47 10
114 22 150 25 36 4 103 15 150 25 47 10 126 23 175 29 50 6 106 15 125 21 19
6 86 17 149 25 63 9 139 22 170 29 31 8 101 20 155 26 55 7 110 16 123 21 13
5 77 16 141 24 64 8 144 22 177 29 33 8 105 20 159 26 55 7 110 16 123 21 13
5 77 16 141 24 64 8 144 22 177 29 33 8 105 20 159 26 55 7 110 16 123 21 13
5 77 16 141 24 64 8 144 22 177 29 33 8 105 20 159 26 55 7 110 16 123 21 13
5 77 16 141 24 64 8 144 22 177 29 33 8 105 20 159 26 55 7 110 16 123 21 13
5 77 16 141 24 64 8 144 22 177 29 33 8 105 20 159 26 55 7 110 16 123 21 13
5 76 16 140 24 64 8 141 22 172 29 31 8 88 17 126 21 39 4 106 15 150 25 44
10 112 21 150 25 39 4 106 15 150 25 44 10 112 21 150 25 39 4 106 15 150 25
44 10 112 21 150 25 39 4 106 15 150 25 44 10 112 21 150 25 39 4 106 15 150
25 44 10 112 21 150 25 39 4 106 15 150 25 44 10 112 21 150 25 39 4 108 15
155 26 47 10 124 23 171 28 48 6 113 17 145 25 33 8 102 20 154 25 52 6 119
18 149 26 30 8 86 17 125 21 39 3 109 14 156 25 47 10 127 23 177 29 51 6 104
15 118 20 14 5 78 17 142 25 64 8 141 22 172 30 31 7 99 19 151 24 52 6 119
18 149 26 30 8 86 17 125 21 39 3 109 14 156 24 47 10 114 22 150 25 36 4 103
15 150 25 47 10 114 22 150 25 36 4 103 15 150 25 47 10 114 22 150 25 36 4
103 15 150 25 47 10 114 22 150 25 36 4 103 15 150 25 47 10 114 22 150 25 36
4 103 15 150 25 47 10 112 21 145 25 111 12 124 27 33 39 -29 4 -89 15 -133
26 -44 10 -109 21 -145 25 -36 4 -103 15 -150 25 -47 10 -114 21 -150 25 -36
4 -94 13 -130 21 -36 8 -117 22 -180 30 -63 8 -141 21 -175 29 -33 7 -89 16
-125 20 -36 4 -103 15 -150 25 -47 10 -114 21 -150 25 -36 4 -103 15 -150 25
-47 10 -114 21 -150 25 -36 4 -103 15 -150 25 -47 10 -114 21 -150 25 -36 4
-103 15 -150 25 -47 10 -114 21 -150 25 -36 4 -103 15 -150 25 -47 10 -114 21
-150 25 -36 4 -103 15 -150 25 -47 10 -114 21 -150 25 -36 4 -103 15 -150 25
-47 10 -114 21 -150 25 -36 4 -103 15 -150 25 -47 10 -114 21 -150 25 -36 4
-103 15 -150 25 -47 10 -114 21 -150 25 -36 4 -103 15 -150 25 -47 10 -114 21
-150 25 -36 4 -103 15 -150 25 -47 10 -114 21 -150 25 -36 4 -103 15 -150 25
-47 10 -114 21 -150 25 -36 4 -103 15 -150 25 -47 10 -114 21 -150 25 -36 4
-103 15 -150 25 -47 10 -114 21 -150 25 -36 4 -103 15 -150 25 -47 10 -116 21
-155 25 -38 3 -106 15 -150 25 -44 10 -111 21 -150 25 -38 3 -106 15 -150 25
-44 10 -111 21 -150 25 -38 3 -106 15 -150 25 -44 10 -111 21 -150 25 -38 3
-106 15 -150 25 -44 10 -111 21 -150 25 -38 3 -106 15 -150 25 -44 10 -111 21
-150 25 -38 3 -106 15 -150 25 -44 10 -111 21 -150 25 -38 3 -106 15 -150 25
-44 10 -111 21 -150 25 -38 3 -106 15 -150 25 -44 10 -111 21 -150 25 -38 3
-106 15 -150 25 -44 10 -111 21 -150 25 -38 3 -106 15 -150 25 -44 10 -111 21
-150 25 -38 3 -106 15 -150 25 -44 10 -111 21 -150 25 -38 3 -106 15 -150 25
-44 10 -111 21 -150 25 -38 3 -106 15 -150 25 -44 10 -111 21 -150 25 -38 3
-108 15 -155 25 -47 10 -114 21 -150 25 -36 4 -103 15 -150 25 -47 10 -114 21
-150 25 -36 4 -103 15 -150 25 -47 10 -114 21 -150 25 -36 4 -103 15 -150 25
-47 10 -114 21 -150 25 -36 4 -103 15 -150 25 -47 10 -114 21 -150 25 -36 4
-103 15 -150 25 -47 10 -114 21 -150 25 -36 4 -103 15 -150 25 -47 10 -114 21
-150 25 -36 4 -103 15 -150 25 -47 10 -114 21 -150 25 -36 4 -103 15 -150 25
-47 10 -114 21 -150 25 -36 4 -103 15 -150 25 -47 10 -114 21 -150 25 -36 4
-104 15 -152 26 -69 15 -124 19 -250 18 -90 -1 -174 -3 -188 -6z m-2191 -1523
c117 -18 145 -30 149 -63 2 -15 13 -32 25 -39 31 -16 440 -3 657 21 109 12
313 24 540 31 201 6 529 15 730 21 383 12 940 8 1420 -10 596 -23 797 -32 855
-41 33 -5 130 -14 215 -20 85 -6 187 -15 225 -21 39 -5 156 -21 260 -34 357
-45 605 -110 531 -138 -8 -3 -61 -11 -118 -17 -57 -6 -166 -19 -243 -30 -77
-11 -187 -24 -245 -30 -58 -6 -143 -17 -190 -25 -98 -16 -354 -35 -473 -35
-45 0 -125 9 -177 21 -52 11 -124 24 -160 30 -195 30 -322 48 -375 54 -123 12
-787 35 -1005 35 -382 0 -1013 -29 -1180 -55 -180 -28 -400 -66 -457 -80 -32
-8 -28 -21 7 -29 17 -3 749 -5 1628 -5 3421 1 3552 0 3630 -40 23 -12 42 -27
42 -34 0 -6 1 -77 2 -157 l2 -145 -40 -15 c-34 -13 -377 -16 -2786 -20 -2151
-4 -2750 -8 -2759 -17 -10 -10 0 -18 47 -39 32 -14 88 -44 123 -67 50 -33 84
-45 170 -63 406 -87 581 -103 1331 -123 364 -10 1143 13 1330 39 36 5 117 16
180 25 136 18 202 30 290 50 109 25 436 31 625 11 88 -10 178 -22 201 -26 22
-5 108 -16 191 -24 83 -9 171 -20 195 -25 24 -6 93 -15 153 -21 116 -11 175
-25 175 -41 0 -19 -90 -50 -192 -65 -57 -8 -132 -22 -168 -29 -36 -8 -124 -22
-195 -30 -72 -8 -153 -19 -180 -24 -28 -5 -115 -14 -195 -21 -139 -10 -257
-21 -440 -40 -47 -5 -179 -11 -295 -15 -115 -3 -363 -13 -550 -21 -382 -16
-1184 -18 -1555 -4 -135 5 -407 14 -605 20 -198 6 -416 17 -485 25 -341 39
-497 43 -1378 30 -536 -7 -787 0 -858 25 l-29 10 2 643 c2 583 4 643 19 654
23 16 109 34 219 43 137 12 1076 4 1164 -10z"/>
<path d="M18615 12694 c-66 -8 -165 -23 -220 -34 -55 -10 -122 -22 -150 -25
-27 -4 -95 -15 -150 -25 -55 -11 -122 -22 -150 -25 -27 -4 -107 -18 -178 -31
-70 -13 -129 -24 -132 -24 -3 0 -5 -4 -5 -10 0 -14 147 -57 225 -65 39 -4 108
-15 155 -25 47 -10 126 -23 175 -30 50 -6 115 -17 145 -25 30 -7 84 -16 120
-20 36 -4 106 -16 155 -28 131 -30 430 -30 560 0 50 12 122 25 160 28 39 4
106 15 150 25 44 10 112 22 150 25 39 4 95 13 125 20 30 8 105 20 167 28 61 8
116 18 122 22 39 24 -22 49 -154 65 -55 6 -125 17 -155 25 -30 7 -98 19 -150
25 -52 6 -120 17 -150 25 -30 7 -98 19 -150 25 -52 6 -120 17 -150 25 -45 11
-369 48 -389 44 -3 -1 -60 -8 -126 -15z"/>
<path d="M49109 12700 c-64 -5 -142 -15 -175 -24 -32 -8 -113 -22 -179 -31
-66 -8 -135 -19 -153 -24 -18 -5 -76 -15 -130 -21 -53 -7 -133 -20 -177 -30
-44 -10 -104 -21 -132 -25 -94 -12 -79 -28 37 -40 36 -4 103 -15 150 -25 47
-10 117 -21 155 -25 39 -4 106 -15 150 -25 44 -10 112 -21 150 -25 39 -4 106
-15 150 -26 55 -13 136 -21 255 -25 l175 -6 300 50 c165 28 377 63 470 78 189
30 224 39 208 55 -16 16 -933 168 -1043 173 -52 2 -147 1 -211 -4z"/>
<path d="M47515 12444 c-16 -3 -73 -13 -125 -24 -52 -10 -122 -22 -155 -25
-33 -4 -98 -15 -145 -25 -47 -10 -114 -21 -150 -25 -36 -3 -94 -13 -130 -21
-36 -8 -110 -21 -165 -29 -55 -7 -136 -21 -180 -29 -89 -17 -222 -40 -365 -61
-52 -8 -144 -24 -205 -35 -129 -23 -262 -45 -395 -65 -52 -8 -144 -24 -205
-35 -129 -23 -262 -45 -395 -65 -52 -8 -144 -24 -205 -35 -129 -23 -262 -45
-395 -65 -52 -8 -144 -24 -205 -35 -144 -26 -270 -46 -430 -71 -71 -10 -143
-24 -160 -29 -16 -5 -82 -16 -145 -24 -63 -9 -130 -20 -147 -25 -18 -5 -77
-15 -130 -21 -54 -7 -123 -18 -153 -25 -30 -8 -107 -21 -170 -29 -63 -9 -130
-20 -147 -25 -18 -5 -77 -15 -130 -21 -54 -7 -123 -18 -153 -25 -30 -8 -107
-21 -170 -29 -63 -9 -130 -20 -147 -25 -18 -5 -77 -15 -130 -21 -54 -7 -123
-18 -153 -25 -30 -8 -107 -21 -170 -29 -63 -9 -130 -20 -147 -25 -18 -5 -77
-15 -130 -21 -54 -7 -123 -18 -153 -25 -30 -8 -107 -21 -170 -29 -63 -9 -130
-20 -147 -25 -18 -5 -77 -15 -130 -21 -54 -7 -123 -18 -153 -25 -30 -8 -107
-21 -170 -29 -63 -9 -130 -20 -147 -25 -18 -5 -77 -15 -130 -21 -54 -7 -123
-18 -153 -25 -30 -8 -107 -21 -170 -29 -63 -9 -130 -20 -147 -25 -18 -5 -77
-15 -130 -21 -54 -7 -123 -18 -153 -25 -30 -8 -107 -21 -170 -29 -63 -9 -130
-20 -147 -25 -18 -5 -77 -15 -130 -21 -54 -7 -123 -18 -153 -25 -30 -8 -107
-21 -170 -29 -63 -9 -130 -20 -147 -25 -18 -5 -77 -15 -130 -21 -54 -7 -123
-18 -153 -25 -30 -8 -107 -21 -170 -29 -63 -9 -130 -20 -147 -25 -18 -5 -77
-15 -130 -21 -54 -7 -123 -18 -153 -25 -30 -8 -107 -21 -170 -29 -63 -9 -130
-20 -147 -25 -18 -5 -77 -15 -130 -21 -54 -7 -123 -18 -153 -25 -30 -8 -107
-21 -170 -29 -63 -9 -130 -20 -147 -25 -18 -5 -77 -15 -130 -21 -54 -7 -123
-18 -153 -25 -30 -8 -107 -21 -170 -29 -63 -9 -130 -20 -147 -25 -18 -5 -77
-15 -130 -21 -54 -7 -123 -18 -153 -25 -30 -8 -107 -21 -170 -29 -63 -9 -129
-20 -147 -25 -17 -5 -73 -14 -125 -21 -51 -6 -131 -20 -178 -30 -47 -10 -114
-21 -150 -25 -36 -4 -103 -15 -150 -25 -47 -10 -114 -21 -150 -25 -36 -3 -94
-13 -130 -21 -36 -8 -101 -19 -145 -25 -44 -5 -127 -19 -184 -31 -112 -22
-246 -22 -381 1 -36 6 -110 18 -165 26 -128 18 -269 41 -370 61 -44 8 -127 22
-185 30 -58 7 -134 21 -170 29 -36 8 -105 20 -155 25 -49 6 -115 17 -145 25
-30 7 -98 19 -150 25 -52 6 -120 17 -150 25 -30 7 -98 19 -150 25 -52 6 -120
17 -150 25 -30 7 -98 19 -150 25 -52 6 -120 17 -150 25 -30 7 -98 19 -150 25
-52 6 -120 17 -150 25 -30 7 -98 19 -150 25 -52 6 -120 18 -150 25 -30 7 -98
19 -150 25 -52 6 -120 18 -150 25 -30 7 -98 19 -150 25 -52 6 -120 18 -150 25
-30 7 -98 19 -150 25 -52 6 -120 18 -150 25 -30 7 -98 19 -150 25 -52 6 -120
18 -150 25 -30 7 -98 19 -150 25 -52 6 -120 18 -150 25 -30 7 -98 19 -150 25
-52 6 -120 18 -150 25 -30 7 -98 19 -150 25 -52 6 -120 18 -150 25 -30 7 -98
19 -150 25 -52 6 -120 18 -150 25 -30 7 -98 19 -150 25 -52 6 -120 18 -150 25
-30 7 -98 19 -150 25 -52 6 -120 18 -150 25 -30 7 -98 19 -150 25 -52 6 -120
18 -150 25 -30 7 -98 19 -150 25 -52 6 -120 18 -150 25 -30 7 -98 19 -150 25
-52 6 -120 18 -150 25 -30 7 -95 18 -145 25 -49 6 -115 17 -145 25 -30 7 -98
19 -150 25 -52 6 -120 17 -150 25 -30 8 -98 19 -150 25 -52 6 -120 17 -150 25
-30 8 -98 19 -150 25 -52 6 -120 17 -150 25 -30 8 -98 19 -150 25 -52 6 -120
17 -150 25 -30 8 -98 19 -150 25 -52 6 -120 17 -150 25 -30 8 -98 19 -150 25
-52 6 -120 18 -150 25 -30 8 -98 19 -150 25 -52 6 -120 18 -150 25 -30 8 -98
19 -150 25 -52 6 -120 18 -150 25 -30 8 -98 19 -150 25 -52 6 -120 18 -150 25
-30 8 -98 19 -150 25 -52 6 -120 18 -150 25 -30 8 -98 19 -150 25 -52 6 -120
18 -150 25 -30 8 -98 19 -150 25 -52 6 -120 18 -150 25 -30 8 -98 19 -150 25
-52 6 -120 18 -150 25 -30 8 -98 19 -150 25 -52 6 -120 18 -150 25 -30 8 -98
19 -150 25 -52 6 -120 18 -150 25 -30 8 -98 19 -150 25 -52 6 -120 18 -150 25
-30 8 -98 19 -150 25 -52 6 -120 17 -150 25 -30 7 -95 18 -145 24 -49 6 -119
18 -155 26 -36 8 -112 22 -170 30 -58 7 -148 21 -200 30 -52 9 -158 27 -235
40 -214 36 -346 55 -390 55 -62 0 -300 -29 -405 -50 -52 -11 -122 -22 -155
-26 -33 -3 -98 -14 -145 -24 -47 -10 -114 -21 -150 -25 -36 -4 -92 -13 -125
-20 -33 -7 -98 -18 -145 -25 -126 -16 -146 -21 -129 -31 9 -4 55 -15 105 -23
49 -8 132 -22 184 -31 52 -9 158 -27 235 -40 77 -13 167 -28 200 -33 74 -12
225 -37 370 -63 61 -10 153 -26 205 -34 133 -20 266 -42 395 -65 61 -11 153
-27 205 -35 133 -20 266 -42 395 -65 61 -11 153 -27 205 -35 133 -20 266 -42
395 -65 61 -11 153 -27 205 -35 133 -20 266 -42 395 -65 61 -11 153 -27 205
-35 133 -20 266 -42 395 -65 61 -11 153 -27 205 -35 133 -20 266 -42 395 -65
61 -11 153 -27 205 -35 183 -28 296 -46 405 -65 61 -11 148 -25 195 -31 47 -5
110 -16 140 -24 30 -7 99 -18 153 -25 53 -6 112 -16 130 -21 17 -5 84 -16 147
-25 63 -8 140 -21 170 -29 30 -7 99 -18 153 -25 53 -6 112 -16 130 -21 17 -5
84 -16 147 -25 63 -8 140 -21 170 -29 30 -7 99 -18 153 -25 53 -6 112 -16 130
-21 17 -5 82 -16 142 -24 61 -8 139 -21 175 -29 36 -9 106 -20 155 -26 50 -6
115 -17 145 -25 30 -7 99 -18 153 -25 53 -6 112 -16 130 -21 17 -5 84 -16 147
-25 63 -8 140 -21 170 -29 30 -7 99 -18 153 -25 53 -6 112 -16 130 -21 17 -5
84 -16 147 -25 63 -8 140 -21 170 -29 30 -7 99 -18 153 -25 53 -6 112 -16 130
-21 17 -5 84 -16 147 -25 63 -8 140 -21 170 -29 30 -7 84 -16 120 -20 36 -4
106 -15 155 -25 50 -10 119 -21 155 -25 36 -4 103 -15 150 -25 47 -10 114 -21
150 -25 36 -4 103 -15 150 -25 47 -10 114 -21 150 -25 36 -4 103 -15 150 -25
47 -10 114 -21 150 -25 36 -4 103 -15 150 -25 47 -10 114 -21 150 -25 36 -4
103 -15 150 -25 47 -10 114 -21 150 -25 36 -4 103 -15 150 -25 47 -10 114 -21
150 -25 36 -4 103 -15 150 -25 47 -10 114 -21 150 -25 36 -4 103 -15 150 -25
47 -10 114 -21 150 -25 36 -4 103 -15 150 -25 47 -10 114 -21 150 -25 36 -4
103 -15 150 -25 47 -10 114 -21 150 -25 36 -4 103 -15 150 -25 47 -10 114 -21
150 -25 36 -4 103 -15 150 -25 47 -10 114 -21 150 -25 36 -4 103 -15 150 -25
47 -10 114 -21 150 -25 36 -4 94 -13 130 -21 36 -8 117 -22 180 -30 63 -8 140
-22 170 -30 35 -10 124 -17 245 -21 166 -4 202 -3 290 15 55 12 138 26 185 32
47 6 114 18 150 25 36 8 103 19 150 25 47 6 114 18 150 25 36 8 103 19 150 25
47 6 114 18 150 25 36 8 103 19 150 25 47 6 114 18 150 25 36 8 103 19 150 25
47 6 114 18 150 25 36 8 103 19 150 25 47 6 114 18 150 25 36 8 103 19 150 25
47 6 114 18 150 25 36 8 103 19 150 25 47 6 114 18 150 25 36 8 103 19 150 25
47 6 112 17 145 25 33 7 85 16 115 20 30 3 118 17 195 30 77 13 209 36 293 50
83 14 220 36 302 50 83 14 219 36 303 50 83 14 217 37 297 50 80 13 214 36
298 50 83 14 218 36 300 50 187 31 405 67 600 100 83 14 218 36 300 50 322 53
462 77 572 95 63 11 158 26 210 34 101 15 212 33 400 66 201 34 362 61 460 76
52 8 131 21 175 29 83 15 246 43 445 75 129 20 250 41 420 70 159 27 343 58
480 80 129 20 250 41 420 70 159 27 343 58 480 80 131 21 254 41 420 70 63 11
201 33 305 50 105 16 242 39 305 50 148 25 335 56 480 80 129 20 250 41 420
70 201 34 362 61 460 76 52 8 131 21 175 29 83 15 246 43 445 75 129 20 250
41 420 70 159 27 343 58 480 80 126 20 244 40 420 70 63 11 200 34 305 51 206
34 250 45 225 59 -8 4 -44 11 -80 15 -36 4 -105 15 -155 25 -49 10 -119 21
-155 25 -36 4 -103 15 -150 25 -47 10 -114 21 -150 25 -36 4 -105 16 -155 27
-66 15 -136 21 -265 23 -96 2 -188 1 -205 -1z"/>
<path d="M49120 12183 c-19 -2 -82 -12 -140 -23 -58 -11 -141 -24 -185 -30
-44 -6 -95 -15 -115 -20 -19 -5 -87 -16 -150 -25 -63 -8 -131 -20 -150 -25
-19 -5 -87 -16 -150 -25 -63 -8 -131 -20 -150 -25 -19 -5 -87 -16 -150 -25
-63 -8 -131 -20 -150 -25 -19 -5 -87 -16 -150 -25 -63 -8 -131 -20 -150 -25
-19 -5 -87 -16 -150 -25 -63 -8 -131 -20 -150 -25 -19 -5 -87 -16 -150 -25
-63 -8 -131 -20 -150 -25 -19 -5 -87 -16 -150 -25 -63 -8 -131 -20 -150 -25
-19 -5 -87 -16 -150 -25 -63 -8 -131 -20 -150 -25 -19 -5 -87 -16 -150 -25
-63 -8 -131 -20 -150 -25 -19 -5 -87 -16 -150 -25 -63 -8 -131 -20 -150 -25
-19 -5 -87 -16 -150 -25 -63 -8 -131 -20 -150 -25 -19 -5 -87 -16 -150 -25
-63 -8 -131 -20 -150 -25 -19 -5 -87 -16 -150 -25 -63 -8 -131 -20 -150 -25
-19 -5 -87 -16 -150 -25 -63 -8 -131 -20 -150 -25 -19 -5 -87 -16 -150 -25
-63 -8 -131 -20 -150 -25 -19 -5 -87 -16 -150 -25 -63 -8 -131 -20 -150 -25
-19 -5 -87 -16 -150 -25 -63 -8 -131 -20 -150 -25 -19 -5 -87 -16 -150 -25
-63 -8 -131 -20 -150 -25 -19 -5 -87 -16 -150 -25 -63 -8 -131 -20 -150 -25
-19 -5 -91 -18 -160 -29 -69 -11 -194 -32 -277 -46 -84 -14 -220 -36 -303 -50
-82 -14 -217 -36 -300 -50 -82 -14 -217 -36 -300 -50 -82 -14 -216 -36 -297
-49 -178 -29 -299 -49 -453 -76 -159 -27 -343 -58 -480 -80 -129 -20 -250 -41
-420 -70 -159 -27 -343 -58 -480 -80 -129 -20 -250 -41 -420 -70 -159 -27
-343 -58 -480 -80 -129 -20 -250 -41 -420 -70 -159 -27 -343 -58 -480 -80
-129 -20 -250 -41 -420 -70 -159 -27 -343 -58 -480 -80 -129 -20 -250 -41
-420 -70 -159 -27 -343 -58 -480 -80 -129 -20 -250 -41 -420 -70 -134 -23
-318 -54 -480 -80 -63 -10 -196 -33 -295 -50 -99 -17 -232 -39 -295 -50 -63
-10 -155 -27 -205 -36 -151 -30 -524 -18 -674 21 -31 8 -99 19 -151 25 -52 6
-120 18 -150 25 -30 7 -98 19 -150 25 -52 6 -120 18 -150 25 -30 8 -98 19
-150 25 -52 6 -120 18 -150 25 -30 8 -98 19 -150 25 -52 6 -120 18 -150 25
-30 8 -98 19 -150 25 -52 6 -120 18 -150 25 -30 8 -98 19 -150 25 -52 6 -120
18 -150 25 -30 8 -98 19 -150 25 -52 6 -120 18 -150 25 -30 8 -98 19 -150 25
-52 6 -120 18 -150 25 -30 8 -98 19 -150 25 -52 6 -120 18 -150 25 -30 8 -98
19 -150 25 -52 6 -120 18 -150 25 -30 8 -98 19 -150 25 -52 6 -120 18 -150 25
-30 8 -98 19 -150 25 -52 6 -120 18 -150 25 -30 8 -98 19 -150 25 -52 6 -120
18 -150 25 -30 8 -98 19 -150 25 -52 6 -120 18 -150 25 -30 8 -98 19 -150 25
-52 6 -120 18 -150 25 -30 8 -98 19 -150 25 -52 6 -120 18 -150 25 -30 8 -98
19 -150 25 -52 6 -120 18 -150 25 -30 8 -98 19 -150 25 -52 6 -120 18 -150 25
-30 8 -98 19 -150 25 -52 6 -120 18 -150 25 -30 8 -98 19 -150 25 -52 6 -120
18 -150 25 -30 8 -98 19 -150 25 -52 6 -120 18 -150 25 -30 8 -95 19 -145 25
-49 6 -115 17 -145 25 -30 8 -98 19 -150 25 -52 6 -120 18 -150 25 -30 8 -98
19 -150 25 -52 6 -120 18 -150 25 -30 8 -98 19 -150 25 -52 6 -120 18 -150 25
-30 8 -98 19 -150 25 -52 6 -120 18 -150 25 -30 8 -98 19 -150 25 -52 6 -120
18 -150 25 -30 8 -98 19 -150 25 -52 6 -120 18 -150 25 -30 8 -98 19 -150 25
-52 6 -120 18 -150 25 -30 8 -98 19 -150 25 -52 6 -120 18 -150 25 -30 8 -98
19 -150 25 -52 6 -120 18 -150 25 -30 8 -98 19 -150 25 -52 6 -120 18 -150 25
-30 8 -98 19 -150 25 -52 6 -120 18 -150 25 -30 8 -98 19 -150 25 -52 6 -120
18 -150 25 -30 8 -98 19 -150 25 -52 6 -120 18 -150 25 -30 8 -98 19 -150 25
-52 6 -120 18 -150 25 -30 8 -98 19 -150 25 -52 6 -120 18 -150 25 -30 8 -98
19 -150 25 -52 6 -120 18 -150 25 -30 8 -98 19 -150 25 -52 6 -120 18 -150 25
-30 8 -98 19 -150 25 -52 6 -120 18 -150 25 -30 8 -98 19 -150 25 -52 6 -120
18 -150 25 -30 8 -98 19 -150 25 -52 6 -120 18 -150 25 -30 8 -98 19 -150 25
-52 6 -120 18 -150 25 -30 8 -98 19 -150 25 -52 6 -120 18 -150 25 -30 8 -98
19 -150 25 -52 6 -120 18 -150 25 -30 8 -98 19 -150 25 -52 6 -120 18 -150 25
-30 8 -98 19 -150 25 -52 6 -120 18 -150 25 -30 8 -107 20 -170 29 -63 8 -128
20 -145 27 -18 7 -103 14 -216 17 -162 4 -199 2 -285 -16 -55 -12 -126 -24
-159 -28 -33 -3 -98 -14 -145 -24 -47 -10 -114 -21 -150 -25 -36 -4 -103 -15
-150 -25 -47 -10 -114 -21 -150 -25 -82 -8 -110 -15 -110 -26 0 -20 73 -35
470 -99 141 -23 327 -54 480 -80 170 -29 291 -50 420 -70 137 -22 321 -53 480
-80 170 -29 291 -50 420 -70 137 -22 321 -53 480 -80 170 -29 291 -50 420 -70
137 -22 321 -53 480 -80 170 -29 291 -50 420 -70 137 -22 321 -53 480 -80 170
-29 291 -50 420 -70 137 -22 321 -53 480 -80 170 -29 291 -50 420 -70 137 -22
321 -53 480 -80 170 -29 291 -50 420 -70 137 -22 321 -53 480 -80 170 -29 291
-50 420 -70 137 -22 321 -53 480 -80 170 -29 291 -50 420 -70 137 -22 321 -53
480 -80 170 -29 291 -50 420 -70 137 -22 321 -53 480 -80 170 -29 291 -50 420
-70 137 -22 321 -53 480 -80 170 -29 291 -50 420 -70 137 -22 321 -53 480 -80
170 -29 291 -50 420 -70 137 -22 321 -53 480 -80 170 -29 291 -50 420 -70 199
-32 362 -60 445 -75 44 -8 123 -21 175 -29 107 -16 302 -49 430 -71 47 -8 519
-88 1050 -176 1046 -175 1100 -181 1337 -161 66 6 145 18 175 26 29 8 98 20
152 26 55 6 122 17 150 25 28 8 96 19 150 25 55 6 122 17 150 25 28 8 96 19
150 25 55 6 122 17 150 25 28 8 96 19 150 25 55 6 122 17 150 25 28 8 96 19
150 25 55 6 122 17 150 25 28 8 95 19 148 25 53 5 122 16 152 24 30 8 88 18
128 21 40 4 111 15 158 26 47 10 124 23 171 28 48 6 113 17 145 25 33 8 102
20 154 25 52 6 119 18 149 26 30 8 86 17 125 21 39 3 109 14 156 25 47 10 124
23 171 28 48 6 113 17 145 25 33 8 102 20 154 25 52 6 119 18 149 26 30 8 86
17 125 21 39 3 109 14 156 25 47 10 124 23 171 28 48 6 113 17 145 25 33 8
102 20 154 25 52 6 119 18 149 26 30 8 86 17 125 20 39 4 107 15 151 25 44 10
124 23 177 29 53 6 122 17 152 25 30 8 88 18 128 21 40 4 109 15 153 26 44 10
112 21 150 25 39 3 106 14 150 25 44 10 112 21 150 25 39 3 106 14 150 25 44
10 112 21 150 25 39 3 106 14 150 25 44 10 112 21 150 25 39 3 106 14 150 25
44 10 112 21 150 25 39 3 106 14 150 25 44 10 112 21 150 25 39 3 106 14 150
25 44 10 112 21 150 25 39 3 106 14 150 25 44 10 112 21 150 25 39 3 106 14
150 25 44 10 112 21 150 25 39 3 106 14 150 24 44 11 123 24 175 29 52 6 119
17 148 25 29 8 87 17 130 21 42 3 111 15 152 25 41 10 109 21 150 25 41 4 109
15 150 25 41 10 109 21 150 25 41 4 109 15 150 25 41 10 109 21 150 25 41 4
109 15 150 25 41 10 109 21 150 25 41 4 109 15 150 25 41 10 109 21 150 25 41
4 109 15 150 25 41 10 109 21 150 25 41 4 109 15 150 25 41 10 109 21 150 25
41 4 109 15 150 25 41 10 109 21 150 25 41 4 109 15 150 25 41 10 109 21 150
25 41 4 109 15 150 25 41 10 109 22 150 25 41 4 111 15 155 25 44 11 114 22
155 25 41 4 109 15 150 25 41 10 109 22 150 25 41 4 109 15 150 25 41 10 109
22 150 25 41 4 109 15 150 25 41 10 109 22 150 25 41 4 109 15 150 25 41 10
109 22 150 25 41 4 109 15 150 25 41 10 109 22 150 25 41 4 109 15 150 25 41
10 109 22 150 25 41 4 109 15 150 25 41 10 109 22 150 25 41 4 109 15 150 25
41 10 109 22 150 25 41 4 109 15 150 25 41 10 109 22 150 25 41 4 109 15 150
25 41 10 121 23 176 29 56 6 114 15 128 21 15 5 83 17 152 25 68 9 136 20 150
25 14 6 81 17 150 25 68 9 136 20 150 25 14 6 81 17 150 25 68 9 135 20 147
24 13 5 59 14 103 20 116 17 132 21 114 31 -8 4 -42 11 -75 14 -33 4 -86 14
-117 22 -32 8 -107 21 -168 29 -61 8 -136 21 -168 29 -31 8 -88 17 -127 21
-38 3 -106 15 -150 25 -44 10 -109 22 -145 26 -36 3 -104 15 -152 25 -83 18
-250 24 -358 12z"/>
<path d="M123092 13860 c-12 -5 -43 -25 -67 -44 -30 -22 -73 -41 -128 -56 -92
-25 -110 -33 -184 -83 -31 -21 -80 -41 -125 -52 -75 -18 -142 -47 -153 -65
-11 -18 -78 -47 -160 -69 -100 -28 -216 -99 -188 -116 21 -12 2267 -20 2326
-8 21 5 39 12 40 17 3 17 -61 47 -140 68 -79 20 -103 31 -162 74 -19 13 -67
34 -105 45 -108 31 -126 39 -186 80 -35 24 -84 46 -134 59 -89 24 -101 29
-171 76 -32 21 -81 41 -135 54 -95 24 -292 36 -328 20z"/>
<path d="M86600 11484 c-30 -2 -140 -11 -245 -19 -104 -8 -253 -17 -330 -20
-77 -4 -184 -13 -238 -21 -55 -7 -160 -21 -235 -29 -171 -19 -540 -89 -635
-120 -40 -12 -104 -28 -144 -35 -51 -8 -90 -23 -135 -49 -35 -21 -100 -50
-146 -65 -127 -42 -172 -98 -172 -213 0 -132 40 -192 154 -231 37 -13 99 -43
138 -67 45 -28 92 -48 127 -55 31 -6 119 -26 196 -45 155 -38 527 -99 706
-115 63 -5 138 -14 165 -20 27 -5 141 -14 254 -20 113 -6 331 -18 485 -27 371
-22 1223 -22 1575 0 135 9 322 19 415 22 94 3 238 15 320 25 83 11 206 24 275
30 69 6 154 18 189 26 35 8 110 21 165 29 56 9 135 26 176 40 41 14 119 34
173 44 68 14 113 29 145 50 26 16 87 41 136 54 49 14 101 34 115 45 33 25 92
142 98 195 6 52 -31 139 -82 196 -30 33 -48 42 -118 61 -45 12 -109 37 -142
55 -37 20 -93 39 -145 50 -47 9 -125 29 -175 45 -49 16 -112 31 -140 35 -27 3
-111 17 -185 30 -74 13 -198 31 -275 40 -77 8 -171 19 -210 24 -38 6 -169 15
-290 21 -121 6 -259 16 -305 22 -79 10 -1528 20 -1660 12z"/>
<path d="M74265 11530 c-75 -8 -91 -16 -99 -43 -3 -12 -6 -108 -6 -213 0 -216
-1 -215 80 -233 122 -28 1718 5 1885 40 28 5 102 16 165 24 108 14 123 19 238
76 97 49 123 66 128 86 5 17 1 30 -12 43 -30 28 -233 130 -259 130 -13 0 -88
11 -167 24 -149 26 -506 47 -1098 66 -312 10 -765 10 -855 0z"/>
<path d="M108406 11530 c-81 -15 -81 -13 -84 -244 l-3 -204 25 -28 24 -29 509
-3 c353 -2 605 1 828 12 176 8 388 18 470 21 247 11 726 84 781 120 32 21 64
73 64 104 0 30 -42 86 -79 106 -39 19 -81 28 -316 65 -110 17 -276 35 -370 41
-93 5 -294 16 -445 25 -315 17 -1330 28 -1404 14z"/>
<path d="M15024 7780 c-29 -4 -57 -11 -63 -14 -7 -4 -11 -42 -11 -95 0 -76 3
-90 20 -106 39 -35 130 -45 420 -45 540 0 947 39 1013 97 34 31 14 69 -47 93
-56 21 -329 61 -480 70 -177 11 -778 11 -852 0z"/>
<path d="M33823 7780 c-39 -4 -76 -11 -82 -14 -7 -4 -11 -43 -11 -95 0 -147
-4 -146 525 -146 627 0 848 24 938 103 27 24 21 39 -28 68 -112 65 -301 85
-845 89 -234 2 -457 0 -497 -5z"/>
<path d="M43505 7680 c-144 -20 -197 -38 -270 -95 -54 -41 -88 -59 -145 -74
-85 -24 -97 -32 -74 -52 14 -11 101 -15 485 -17 471 -3 549 2 549 32 0 22 -22
34 -124 67 -72 24 -110 42 -143 71 -24 21 -57 45 -72 52 -36 19 -132 26 -206
16z"/>
<path d="M54905 7680 c-144 -20 -197 -38 -270 -95 -54 -41 -88 -59 -145 -74
-85 -24 -97 -32 -74 -52 14 -11 101 -15 485 -17 471 -3 549 2 549 32 0 22 -22
34 -124 67 -72 24 -110 42 -143 71 -24 21 -57 45 -72 52 -36 19 -132 26 -206
16z"/>
<path d="M59163 7779 c-24 -6 -43 -13 -43 -17 0 -4 -2 -35 -4 -70 -4 -60 -3
-63 24 -77 71 -37 285 -43 900 -25 426 13 497 20 528 55 40 46 21 82 -51 99
-138 32 -256 38 -777 42 -333 2 -551 -1 -577 -7z"/>
<path d="M68835 7681 c-42 -10 -71 -27 -115 -67 -27 -25 -70 -46 -142 -71
-109 -37 -128 -47 -128 -69 0 -30 78 -35 542 -32 365 2 468 6 487 16 32 19 19
29 -72 53 -61 17 -91 32 -144 74 -72 58 -98 67 -251 90 -105 16 -131 17 -177
6z"/>
<path d="M103853 7696 c-23 -8 -56 -22 -75 -33 -18 -12 -70 -33 -115 -47 -56
-19 -95 -39 -125 -66 -24 -21 -61 -45 -83 -54 -26 -11 -35 -20 -29 -26 23 -23
146 -30 496 -30 368 0 468 7 468 35 0 29 -70 73 -166 105 -73 25 -108 42 -140
72 -63 58 -139 72 -231 44z"/>
<path d="M109863 7779 c-24 -6 -43 -13 -43 -17 -6 -179 -5 -183 17 -203 35
-34 84 -39 403 -39 456 0 936 32 987 65 36 24 48 58 34 93 -17 41 -48 52 -191
68 -69 8 -154 20 -190 25 -89 14 -963 21 -1017 8z"/>
<path d="M115035 7681 c-42 -10 -71 -27 -115 -67 -27 -25 -70 -46 -142 -71
-109 -37 -128 -47 -128 -69 0 -30 78 -35 542 -32 365 2 468 6 487 16 32 19 19
29 -72 53 -61 17 -91 32 -144 74 -72 58 -98 67 -251 90 -105 16 -131 17 -177
6z"/>
<path d="M119323 7780 c-39 -4 -76 -11 -82 -14 -7 -4 -11 -43 -11 -95 0 -147
-4 -146 525 -146 627 0 848 24 938 103 27 24 21 39 -28 68 -112 65 -301 85
-845 89 -234 2 -457 0 -497 -5z"/>
<path d="M129735 7681 c-42 -10 -71 -27 -115 -67 -27 -25 -70 -46 -142 -71
-109 -37 -128 -47 -128 -69 0 -30 78 -35 542 -32 365 2 468 6 487 16 32 19 19
29 -72 53 -61 17 -91 32 -144 74 -72 58 -98 67 -251 90 -105 16 -131 17 -177
6z"/>
</g>
</svg>
